<?xml version="1.0" encoding="UTF-8" standalone="no" ?>
<!DOCTYPE svg PUBLIC "-//W3C//DTD SVG 1.1//EN" "http://www.w3.org/Graphics/SVG/1.1/DTD/svg11.dtd">
<svg xmlns="http://www.w3.org/2000/svg" xmlns:xlink="http://www.w3.org/1999/xlink" version="1.1" width="540" height="540" viewBox="0 0 540 540" xml:space="preserve">
<desc>Created with Fabric.js 5.2.4</desc>
<defs>
</defs>
<rect x="0" y="0" width="100%" height="100%" fill="transparent"></rect>
<g transform="matrix(1 0 0 1 270 270)" id="269052c4-326c-4559-98c1-44b26682010f"  >
<rect style="stroke: none; stroke-width: 1; stroke-dasharray: none; stroke-linecap: butt; stroke-dashoffset: 0; stroke-linejoin: miter; stroke-miterlimit: 4; fill: rgb(255,255,255); fill-rule: nonzero; opacity: 1; visibility: hidden;" vector-effect="non-scaling-stroke"  x="-270" y="-270" rx="0" ry="0" width="540" height="540" />
</g>
<g transform="matrix(0 0 0 0 0 0)" id="8e901bd9-f91b-44a5-a070-406ff39325d3"  >
</g>
<g transform="matrix(1 0 0 1 270 270)"  >
<g style="" vector-effect="non-scaling-stroke"   >
		<g transform="matrix(1 0 0 1 0 0)" id="path2437"  >
<path style="stroke: none; stroke-width: 1; stroke-dasharray: none; stroke-linecap: butt; stroke-dashoffset: 0; stroke-linejoin: miter; stroke-miterlimit: 4; fill: rgb(0,0,0); fill-rule: nonzero; opacity: 1;" vector-effect="non-scaling-stroke"  transform=" translate(-252, -252)" d="M 57.352 455.07 C 47.806 445.59 39.745 436.83 39.43899999999999 435.62 C 38.37299999999999 431.39 40.644999999999996 427.92 48.797999999999995 421.33 C 64.65899999999999 408.52 82.762 399.40999999999997 102.57999999999998 394.26 C 119.89999999999998 389.76 128.48999999999998 389.07 157.57999999999998 389.82 C 191.85 390.7 206.26999999999998 388.81 217.48 381.96999999999997 L 221.38 379.59 L 213.48 377.86999999999995 C 200.08999999999997 374.9599999999999 182.07999999999998 368.5199999999999 169.04 361.97999999999996 C 151.06 352.96999999999997 151.69 355.78999999999996 160.17 322.05999999999995 C 163.94 307.0799999999999 167.03 294.36999999999995 167.03 293.81999999999994 C 167.03 293.2699999999999 164.54 291.03999999999996 161.49 288.8499999999999 C 146.70000000000002 278.25999999999993 135.27 261.0199999999999 129.87 241.1599999999999 C 128.04 234.4499999999999 127.62 230.3899999999999 127.68 220.3199999999999 C 127.78 205.33999999999992 129.89000000000001 196.4099999999999 136.58 182.6599999999999 C 147.12 160.9899999999999 161.28 146.9799999999999 200.58 119.29999999999991 C 214 109.84999999999991 225.05 101.71999999999991 232.83 95.60599999999991 C 234.17000000000002 94.55199999999991 233.69000000000003 93.7449999999999 229.28 89.60599999999991 C 221.99 82.75799999999991 218.59 75.0329999999999 218.59 65.30299999999991 C 218.57 51.85799999999991 226 40.68499999999992 239.08 34.45599999999991 C 246.86 30.74899999999991 257.29 30.74899999999991 265.08000000000004 34.45599999999991 C 273.23 38.33699999999991 278.53000000000003 43.46099999999991 282.29 51.094999999999914 C 288.82 64.36699999999992 285.97 79.18299999999991 274.87 89.60599999999991 C 270.47 93.7449999999999 269.99 94.55199999999991 271.33 95.60599999999991 C 279.09999999999997 101.71999999999991 290.15999999999997 109.84999999999991 303.58 119.29999999999991 C 342.88 146.9799999999999 357.03999999999996 160.9899999999999 367.58 182.6599999999999 C 374.26 196.4099999999999 376.37 205.33999999999992 376.46999999999997 220.3199999999999 C 376.53999999999996 230.3899999999999 376.10999999999996 234.4499999999999 374.28999999999996 241.1599999999999 C 368.89 261.0199999999999 357.45 278.25999999999993 342.65999999999997 288.8499999999999 C 339.61999999999995 291.0399999999999 337.11999999999995 293.2699999999999 337.13 293.81999999999994 C 337.13 294.36999999999995 340.21999999999997 307.0799999999999 343.98 322.05999999999995 C 352.47 355.78999999999996 353.1 352.96999999999997 335.12 361.97999999999996 C 322.08 368.52 304.07 374.96 290.68 377.86999999999995 L 282.78000000000003 379.59 L 286.68 381.96999999999997 C 297.88 388.80999999999995 312.3 390.7 346.58 389.82 C 375.66999999999996 389.07 384.26 389.76 401.58 394.26 C 421.53 399.44 439.21 408.38 455.56 421.53999999999996 C 462.35 426.99999999999994 464.11 428.97999999999996 464.62 431.71 C 464.97 433.58 464.8 435.95 464.25 436.96999999999997 C 463.69 437.98999999999995 455.63 446.35999999999996 446.34 455.57 C 434.53999999999996 467.27 428.77 472.32 427.2 472.32 C 424.32 472.32 422.53 471.34 414.84999999999997 465.54 C 406.97999999999996 459.59000000000003 394.79999999999995 453.22 385.05999999999995 449.97 C 374.03 446.28000000000003 359.6499999999999 444.52000000000004 331.0799999999999 443.38000000000005 C 295.2699999999999 441.96000000000004 279.5899999999999 438.81000000000006 261.37999999999994 429.4200000000001 L 252.07999999999993 424.63000000000005 L 242.77999999999992 429.4200000000001 C 224.5699999999999 438.81000000000006 208.88999999999993 441.9600000000001 173.07999999999993 443.38000000000005 C 144.50999999999993 444.52000000000004 130.11999999999992 446.28000000000003 119.08999999999992 449.97 C 109.35999999999991 453.22 97.17499999999993 459.59000000000003 89.30699999999992 465.54 C 81.62799999999991 471.34000000000003 79.83799999999992 472.32 76.95899999999992 472.32 C 75.38199999999992 472.32 69.50999999999992 467.15999999999997 57.35199999999992 455.07 z" stroke-linecap="round" />
</g>
		<g transform="matrix(1 0 0 1 0.06 -61.06)" id="path2612"  >
<path style="stroke: none; stroke-width: 1; stroke-dasharray: none; stroke-linecap: butt; stroke-dashoffset: 0; stroke-linejoin: miter; stroke-miterlimit: 4; fill: rgb(255,255,255); fill-rule: nonzero; opacity: 1;" vector-effect="non-scaling-stroke"  transform=" translate(-252.06, -190.94)" d="M 191.81 274.89 C 229.15 263.19 266.09000000000003 262.34999999999997 303.82 272.36 C 310.01 274.01 317.55 276.28000000000003 320.58 277.41 L 326.09999999999997 279.48 L 330.90999999999997 275.95000000000005 C 357.55999999999995 256.38000000000005 366.5 220.50000000000006 352.11999999999995 190.80000000000004 C 342.72999999999996 171.39000000000004 328.25999999999993 157.72000000000003 285.4699999999999 127.82000000000005 C 278.38999999999993 122.87000000000005 267.9799999999999 115.13000000000005 262.3399999999999 110.61000000000004 L 252.07999999999993 102.40000000000003 L 241.81999999999994 110.61000000000004 C 236.17999999999995 115.13000000000004 225.76999999999992 122.87000000000005 218.67999999999995 127.82000000000005 C 175.89999999999995 157.72000000000006 161.42999999999995 171.39000000000004 152.03999999999996 190.80000000000004 C 139.89999999999998 215.87000000000003 144.11999999999998 245.69000000000005 162.74999999999997 266.40000000000003 C 168.25999999999996 272.52000000000004 177.32999999999998 279.47 179.07999999999998 278.90000000000003 C 179.89999999999998 278.63000000000005 185.63 276.83000000000004 191.80999999999997 274.89000000000004 z" stroke-linecap="round" />
</g>
		<g transform="matrix(1 0 0 1 -0.08 55.51)" id="path2610"  >
<path style="stroke: none; stroke-width: 1; stroke-dasharray: none; stroke-linecap: butt; stroke-dashoffset: 0; stroke-linejoin: miter; stroke-miterlimit: 4; fill: rgb(255,255,255); fill-rule: nonzero; opacity: 1;" vector-effect="non-scaling-stroke"  transform=" translate(-251.92, -307.51)" d="M 184.81 328.37 C 194.2 324.54 211.11 319.8 223.08 317.63 C 236.29000000000002 315.24 267.88 315.24 281.08000000000004 317.63 C 293.53000000000003 319.89 307.46000000000004 323.78 318.41 328.05 C 323.26000000000005 329.95 327.44 331.3 327.69 331.05 C 327.93 330.8 326.21 322.84000000000003 323.86 313.36 C 318.91 293.41 320.38 295.09000000000003 303.78000000000003 290.43 C 285.85 285.39 273.79 283.86 252.08000000000004 283.86 C 230.37000000000006 283.86 218.31000000000003 285.39 200.38000000000005 290.43 C 183.85000000000005 295.07 185.18000000000006 293.61 180.66000000000005 311.97 C 178.51000000000005 320.69000000000005 176.55000000000004 328.61 176.30000000000004 329.57000000000005 C 175.69000000000003 331.91 176.36000000000004 331.81000000000006 184.81000000000003 328.37000000000006 z" stroke-linecap="round" />
</g>
		<g transform="matrix(1 0 0 1 0.08 96.94)" id="path2608"  >
<path style="stroke: none; stroke-width: 1; stroke-dasharray: none; stroke-linecap: butt; stroke-dashoffset: 0; stroke-linejoin: miter; stroke-miterlimit: 4; fill: rgb(255,255,255); fill-rule: nonzero; opacity: 1;" vector-effect="non-scaling-stroke"  transform=" translate(-252.08, -348.94)" d="M 285.69 360.88 C 297.67 358.39 312.36 353.75 319.02 350.34 L 322.46 348.59 L 317.71999999999997 346.48999999999995 C 309.29999999999995 342.7699999999999 291.84999999999997 337.55999999999995 281.58 335.71999999999997 C 267.60999999999996 333.2 236.54 333.2 222.57999999999998 335.71999999999997 C 212.30999999999997 337.55999999999995 194.85 342.77 186.44 346.48999999999995 L 181.7 348.59 L 185.14 350.34 C 194.98 355.38 216.71999999999997 361.31 232.71999999999997 363.34 C 245.31999999999996 364.92999999999995 272.18999999999994 363.69 285.68999999999994 360.88 z" stroke-linecap="round" />
</g>
		<g transform="matrix(1 0 0 1 0.03 164.88)" id="path2606"  >
<path style="stroke: none; stroke-width: 1; stroke-dasharray: none; stroke-linecap: butt; stroke-dashoffset: 0; stroke-linejoin: miter; stroke-miterlimit: 4; fill: rgb(255,255,255); fill-rule: nonzero; opacity: 1;" vector-effect="non-scaling-stroke"  transform=" translate(-252.03, -416.88)" d="M 84.228 447.68 C 92.12899999999999 442.3 108.36999999999999 434.79 118.27 431.93 C 131.43 428.13 145.04 426.5 173.07999999999998 425.37 C 187.1 424.8 201.5 423.86 205.07999999999998 423.29 C 220.23999999999998 420.87 233.89999999999998 415.64000000000004 245 408.03000000000003 C 250.57 404.21000000000004 253.59 404.21000000000004 259.16 408.03000000000003 C 270.26000000000005 415.64000000000004 283.92 420.87 299.08000000000004 423.29 C 302.65000000000003 423.86 317.05000000000007 424.8 331.08000000000004 425.37 C 359.12000000000006 426.5 372.72 428.13 385.89000000000004 431.93 C 395.83000000000004 434.8 412.03000000000003 442.3 420.01000000000005 447.74 L 425.45000000000005 451.44 L 434.37000000000006 442.52 L 443.2900000000001 433.59 L 434.82000000000005 427.96 C 421.40000000000003 419.03 408.02000000000004 413.38 391.58000000000004 409.7 C 384.73 408.17 378.19000000000005 407.9 346.08000000000004 407.81 C 308.82000000000005 407.7 308.52000000000004 407.68 298.75000000000006 405.05 C 293.3500000000001 403.59000000000003 286.43000000000006 401.26 283.37000000000006 399.86 C 276.96000000000004 396.92 266.89000000000004 389.91 262.64000000000004 385.43 C 259.86000000000007 382.48 259.31000000000006 382.32 252.08000000000004 382.32 C 244.85000000000002 382.32 244.30000000000004 382.48 241.52000000000004 385.43 C 237.27000000000004 389.91 227.20000000000005 396.92 220.78000000000003 399.86 C 217.73000000000002 401.26 210.81000000000003 403.59000000000003 205.41000000000003 405.05 C 195.64000000000001 407.68 195.34000000000003 407.7 158.08000000000004 407.81 C 125.97000000000004 407.9 119.43000000000004 408.17 112.58000000000004 409.7 C 96.27500000000003 413.34999999999997 83.27800000000005 418.81 69.43700000000004 427.83 L 60.77400000000004 433.47999999999996 L 69.65500000000004 442.4 C 74.54000000000005 447.31 78.61400000000005 451.32 78.70700000000005 451.32 C 78.80100000000004 451.32 81.28500000000005 449.68 84.22800000000005 447.68 z" stroke-linecap="round" />
</g>
		<g transform="matrix(1 0 0 1 0.11 -186.67)" id="path2616"  >
<path style="stroke: none; stroke-width: 1; stroke-dasharray: none; stroke-linecap: butt; stroke-dashoffset: 0; stroke-linejoin: miter; stroke-miterlimit: 4; fill: rgb(255,255,255); fill-rule: nonzero; opacity: 1;" vector-effect="non-scaling-stroke"  transform=" translate(-252.11, -65.32)" d="M 260.16 79.05 C 270.8 71.88 270.8 58.768 260.16 51.598 C 250.34000000000003 44.985 236.08000000000004 53.118 236.08000000000004 65.324 C 236.08000000000004 77.531 250.34000000000003 85.663 260.16 79.05 z" stroke-linecap="round" />
</g>
		<g transform="matrix(1 0 0 1 0.08 -57.68)" id="path2614"  >
<path style="stroke: none; stroke-width: 1; stroke-dasharray: none; stroke-linecap: butt; stroke-dashoffset: 0; stroke-linejoin: miter; stroke-miterlimit: 4; fill: rgb(0,0,0); fill-rule: nonzero; opacity: 1;" vector-effect="non-scaling-stroke"  transform=" translate(-252.08, -194.32)" d="M 246.99 234.04 C 243.75 231.54999999999998 243.08 228.47 243.08 215.97 L 243.08 203.48 L 229.49 203.14999999999998 C 216.01000000000002 202.82999999999998 215.88 202.79999999999998 213.49 200.01999999999998 C 210.41 196.42999999999998 210.41 192.21999999999997 213.49 188.63 C 215.88 185.85 216.02 185.82 229.41 185.5 L 242.93 185.17 L 243.25 171.66 C 243.58 158.26999999999998 243.6 158.12 246.38 155.74 C 249.97 152.65 254.19 152.65 257.77 155.74 C 260.54999999999995 158.12 260.58 158.27 260.9 171.66 L 261.22999999999996 185.17 L 274.73999999999995 185.5 C 288.13999999999993 185.82 288.28 185.85 290.66999999999996 188.63 C 293.74999999999994 192.22 293.74999999999994 196.43 290.66999999999996 200.01999999999998 C 288.28 202.79999999999998 288.14 202.82999999999998 274.66999999999996 203.14999999999998 L 261.08 203.48 L 261.08 215.97 C 261.08 228.47 260.40999999999997 231.55 257.16999999999996 234.04 C 255.11999999999995 235.60999999999999 249.03999999999996 235.60999999999999 246.98999999999995 234.04 z" stroke-linecap="round" />
</g>
</g>
</g>
<g transform="matrix(0 0 0 0 0 0)"  >
<g style=""   >
</g>
</g>
<g transform="matrix(0 0 0 0 0 0)"  >
<g style=""   >
</g>
</g>
<g transform="matrix(2.79 1.15 -0.12 0.29 294.22 368.55)" id="a4f5d37c-62cc-4653-87dc-3633cd8ac70d"  >
<rect style="stroke: rgb(0,0,0); stroke-width: 0; stroke-dasharray: none; stroke-linecap: butt; stroke-dashoffset: 0; stroke-linejoin: miter; stroke-miterlimit: 4; fill: rgb(0,0,0); fill-rule: nonzero; opacity: 1;" vector-effect="non-scaling-stroke"  x="-37.165" y="-37.165" rx="0" ry="0" width="74.33" height="74.33" />
</g>
<g transform="matrix(1.52 1.52 -0.22 0.22 225.45 236.62)" id="a4f5d37c-62cc-4653-87dc-3633cd8ac70d"  >
<rect style="stroke: rgb(0,0,0); stroke-width: 0; stroke-dasharray: none; stroke-linecap: butt; stroke-dashoffset: 0; stroke-linejoin: miter; stroke-miterlimit: 4; fill: rgb(0,0,0); fill-rule: nonzero; opacity: 1;" vector-effect="non-scaling-stroke"  x="-37.165" y="-37.165" rx="0" ry="0" width="74.33" height="74.33" />
</g>
<g transform="matrix(2.11 0.42 -0.06 0.3 297.71 142.17)" id="a4f5d37c-62cc-4653-87dc-3633cd8ac70d"  >
<rect style="stroke: rgb(0,0,0); stroke-width: 0; stroke-dasharray: none; stroke-linecap: butt; stroke-dashoffset: 0; stroke-linejoin: miter; stroke-miterlimit: 4; fill: rgb(0,0,0); fill-rule: nonzero; opacity: 1;" vector-effect="non-scaling-stroke"  x="-37.165" y="-37.165" rx="0" ry="0" width="74.33" height="74.33" />
</g>
</svg>