<?xml version="1.0" encoding="UTF-8" standalone="no" ?>
<!DOCTYPE svg PUBLIC "-//W3C//DTD SVG 1.1//EN" "http://www.w3.org/Graphics/SVG/1.1/DTD/svg11.dtd">
<svg xmlns="http://www.w3.org/2000/svg" xmlns:xlink="http://www.w3.org/1999/xlink" version="1.1" width="540" height="540" viewBox="0 0 540 540" xml:space="preserve">
<desc>Created with Fabric.js 5.2.4</desc>
<defs>
</defs>
<rect x="0" y="0" width="100%" height="100%" fill="transparent"></rect>
<g transform="matrix(1 0 0 1 270 270)" id="269052c4-326c-4559-98c1-44b26682010f"  >
<rect style="stroke: none; stroke-width: 1; stroke-dasharray: none; stroke-linecap: butt; stroke-dashoffset: 0; stroke-linejoin: miter; stroke-miterlimit: 4; fill: rgb(255,255,255); fill-rule: nonzero; opacity: 1; visibility: hidden;" vector-effect="non-scaling-stroke"  x="-270" y="-270" rx="0" ry="0" width="540" height="540" />
</g>
<g transform="matrix(0 0 0 0 0 0)" id="8e901bd9-f91b-44a5-a070-406ff39325d3"  >
</g>
<g transform="matrix(0.9 0 0 0.9 270 270)"  >
<g style="" vector-effect="non-scaling-stroke"   >
		<g transform="matrix(1 0 0 1 0 0)"  >
<path style="stroke: none; stroke-width: 1; stroke-dasharray: none; stroke-linecap: butt; stroke-dashoffset: 0; stroke-linejoin: miter; stroke-miterlimit: 4; fill: rgb(0,0,0); fill-rule: nonzero; opacity: 1;" vector-effect="non-scaling-stroke"  transform=" translate(-252, -252)" d="M 155.21 472.75 C 147.13 468.72 145.93 444.94 152.78 424.79 C 158.64000000000001 407.57000000000005 165.4 398.47 191.24 373.02000000000004 C 214.52 350.09000000000003 220.72 342.54 227.96 328.32000000000005 C 236.61 311.35 240.01000000000002 297.9200000000001 240.92000000000002 277.27000000000004 C 241.24 269.98 241.26000000000002 264.02000000000004 240.97000000000003 264.02000000000004 C 240.68000000000004 264.02000000000004 235.77000000000004 266.87000000000006 230.07000000000002 270.36 C 224.37000000000003 273.84000000000003 211.54000000000002 280.84000000000003 201.55 285.91 C 163.65 305.15000000000003 157.70000000000002 310.8 140.79000000000002 343.6 C 137.65000000000003 349.69 133.07000000000002 357.24 130.60000000000002 360.38 C 122.72000000000003 370.43 110.04000000000002 378.02 101.15000000000002 378.02 C 97.35600000000002 378.02 90.40400000000002 375.40999999999997 86.72100000000002 372.59999999999997 C 85.00400000000002 371.28999999999996 82.78700000000002 368.41999999999996 81.79400000000001 366.21999999999997 C 80.16100000000002 362.59 79.55100000000002 362.15 75.34800000000001 361.53 C 46.64200000000001 357.29999999999995 26.28500000000001 332.33 28.54100000000001 304.10999999999996 C 29.99200000000001 285.96999999999997 38.155000000000015 267.8299999999999 58.68300000000001 237.13999999999996 C 72.732 216.13999999999996 78.44200000000001 205.94999999999996 82.35900000000001 194.89999999999995 C 84.38900000000001 189.16999999999996 84.62500000000001 186.61999999999995 84.66300000000001 170.01999999999995 L 84.70600000000002 151.51999999999995 L 87.94500000000002 144.67999999999995 C 90.64400000000002 138.97999999999996 93.48400000000002 135.55999999999995 104.97000000000003 124.17999999999995 C 112.55000000000003 116.66999999999994 120.05000000000003 108.58999999999995 121.65000000000003 106.21999999999994 L 124.55000000000004 101.91999999999994 L 122.35000000000004 74.21999999999994 C 119.33000000000004 36.03799999999994 119.32000000000004 36.136999999999944 125.53000000000004 33.526999999999944 C 129.76000000000005 31.748999999999945 129.55000000000004 31.649999999999945 161.52000000000004 50.88499999999995 C 176.27000000000004 59.75899999999995 188.68000000000004 67.01999999999995 189.10000000000002 67.01999999999995 C 189.52 67.01999999999995 197.42000000000002 58.92999999999995 206.66000000000003 49.04199999999995 C 220.58 34.14299999999995 224.05 30.951999999999952 226.92000000000002 30.41399999999995 C 233.03000000000003 29.26799999999995 234.47000000000003 31.312999999999953 246.9 58.63299999999995 L 258.3 83.67699999999995 L 264.5 82.76799999999994 C 273.41 81.46299999999994 295.1 82.61399999999995 306.36 84.98799999999994 C 326.82 89.29899999999995 347.13 98.09399999999994 363.57 109.75999999999993 C 374.55 117.54999999999994 392.23 135.42999999999995 400.40999999999997 147.01999999999992 C 418.09999999999997 172.06999999999994 430.91999999999996 200.0999999999999 442.66999999999996 239.43999999999994 C 462.84 306.97999999999996 475.27 385.9599999999999 475.59999999999997 448.7299999999999 C 475.7 468.4999999999999 475.65999999999997 468.9999999999999 473.42999999999995 471.2299999999999 L 471.15 473.5199999999999 L 314.42999999999995 473.75999999999993 C 190.77999999999994 473.94999999999993 157.17999999999995 473.73999999999995 155.20999999999995 472.74999999999994 z" stroke-linecap="round" />
</g>
		<g transform="matrix(1 0 0 1 -96.36 -177.4)"  >
<path style="stroke: none; stroke-width: 1; stroke-dasharray: none; stroke-linecap: butt; stroke-dashoffset: 0; stroke-linejoin: miter; stroke-miterlimit: 4; fill: rgb(255,255,255); fill-rule: nonzero; opacity: 1;" vector-effect="non-scaling-stroke"  transform=" translate(-155.63, -74.6)" d="M 155.79 67.859 C 146.94 62.54599999999999 139.57999999999998 58.321999999999996 139.42 58.474 C 139.26999999999998 58.626 139.67999999999998 65.945 140.33999999999997 74.739 L 141.52999999999997 90.72800000000001 L 156.69999999999996 84.12400000000001 L 171.87999999999997 77.52000000000001 L 155.78999999999996 67.85900000000001 z" stroke-linecap="round" />
</g>
		<g transform="matrix(1 0 0 1 1.7 4.36)"  >
<path style="stroke: none; stroke-width: 1; stroke-dasharray: none; stroke-linecap: butt; stroke-dashoffset: 0; stroke-linejoin: miter; stroke-miterlimit: 4; fill: rgb(255,255,255); fill-rule: nonzero; opacity: 1;" vector-effect="non-scaling-stroke"  transform=" translate(-253.71, -256.36)" d="M 458.84 455.47 C 461.72999999999996 452.59000000000003 461.72999999999996 452.46000000000004 458.61999999999995 413.02000000000004 C 452.81999999999994 339.34000000000003 434.84999999999997 252.63000000000005 414.99999999999994 202.52000000000004 C 409.18999999999994 187.85000000000005 398.10999999999996 166.87000000000003 390.43999999999994 156.02000000000004 C 373.97999999999996 132.73000000000005 349.50999999999993 113.67000000000004 324.61999999999995 104.73000000000005 C 309.69999999999993 99.36600000000004 298.13999999999993 97.51300000000005 280.2099999999999 97.60500000000005 C 269.4899999999999 97.66000000000005 261.0899999999999 98.23400000000005 256.2399999999999 99.24100000000004 C 252.1399999999999 100.09000000000005 248.2499999999999 100.59000000000005 247.6199999999999 100.35000000000004 C 246.9799999999999 100.10000000000004 242.9499999999999 92.16500000000003 238.65999999999988 82.71100000000004 C 234.3699999999999 73.25600000000004 229.7399999999999 63.07400000000004 228.3699999999999 60.08600000000004 L 225.8899999999999 54.65100000000004 L 210.2999999999999 70.75300000000004 L 194.7099999999999 86.85400000000004 L 167.5399999999999 98.54500000000004 L 140.3799999999999 110.24000000000004 L 133.8299999999999 119.01000000000003 C 130.21999999999989 123.83000000000004 122.7599999999999 131.95000000000005 117.2299999999999 137.05000000000004 C 102.3999999999999 150.73000000000005 102.7199999999999 149.99000000000004 102.62999999999991 171.02000000000004 C 102.56999999999991 186.08000000000004 102.24999999999991 189.56000000000003 100.32999999999991 196.02000000000004 C 96.54399999999991 208.75000000000003 88.10999999999991 224.64000000000004 73.80099999999992 246.02000000000004 C 58.103999999999914 269.47 49.93799999999992 285.06000000000006 47.605999999999916 296.03000000000003 C 45.62399999999992 305.35 46.206999999999915 317 48.96399999999991 323.14000000000004 C 53.831999999999915 333.99000000000007 65.79499999999992 342.59000000000003 77.53199999999991 343.69000000000005 L 83.95299999999992 344.2900000000001 L 90.65099999999993 335.4000000000001 C 94.33499999999992 330.5200000000001 98.32899999999992 325.9700000000001 99.52699999999993 325.3100000000001 C 104.36999999999993 322.60000000000014 109.58999999999993 324.3200000000001 111.67999999999994 329.3100000000001 C 113.44999999999993 333.5000000000001 112.56999999999994 335.5200000000001 104.07999999999994 346.8300000000001 C 100.22999999999995 351.9500000000001 97.22599999999994 356.9000000000001 97.40199999999994 357.8300000000001 C 97.98199999999994 360.8900000000001 104.19999999999995 360.5300000000001 108.83999999999995 357.1700000000001 C 115.25999999999995 352.5200000000001 119.54999999999995 346.51000000000005 128.26999999999995 329.9600000000001 C 132.73999999999995 321.4700000000001 138.34999999999997 311.7800000000001 140.73999999999995 308.43000000000006 C 149.90999999999994 295.56000000000006 163.74999999999994 285.5400000000001 192.54999999999995 270.9000000000001 C 220.88999999999996 256.5000000000001 245.94999999999996 240.5200000000001 253.34999999999997 232.13000000000008 C 262.07 222.24000000000007 265.77 210.7100000000001 264.9 196.0900000000001 C 264.25 185.13000000000008 265.35999999999996 181.8600000000001 270.29999999999995 180.1400000000001 C 272.79999999999995 179.2700000000001 274.12999999999994 179.3600000000001 276.75999999999993 180.6100000000001 C 280.93999999999994 182.6000000000001 282.22999999999996 186.0400000000001 282.91999999999996 197.0500000000001 C 283.97999999999996 213.8500000000001 276.44999999999993 233.7000000000001 264.34999999999997 246.0100000000001 L 257.71 252.7700000000001 L 258.51 259.1400000000001 C 259.71 268.6400000000001 258.51 290.2300000000001 256.21 300.5200000000001 C 251.67 320.80000000000007 243.14 340.1100000000001 231.96999999999997 355.3600000000001 C 228.65999999999997 359.8900000000001 216.29999999999998 373.10000000000014 204.22999999999996 385.02000000000015 C 182.69999999999996 406.29000000000013 176.46999999999997 413.82000000000016 171.57999999999996 424.52000000000015 C 168.45999999999995 431.32000000000016 166.24999999999994 441.78000000000014 166.21999999999994 449.77000000000015 L 166.20999999999995 456.02000000000015 L 307.65 456.02000000000015 C 400.85999999999996 456.02000000000015 449.29999999999995 456.3600000000001 449.71 457.02000000000015 C 450.91999999999996 458.98000000000013 456.23999999999995 458.07000000000016 458.84 455.47000000000014 z" stroke-linecap="round" />
</g>
		<g transform="matrix(1 0 0 1 -115.63 -80.01)"  >
<path style="stroke: none; stroke-width: 1; stroke-dasharray: none; stroke-linecap: butt; stroke-dashoffset: 0; stroke-linejoin: miter; stroke-miterlimit: 4; fill: rgb(0,0,0); fill-rule: nonzero; opacity: 1;" vector-effect="non-scaling-stroke"  transform=" translate(-136.37, -171.99)" d="M 115.28 190.86 C 119.8 182.34 132.85 161.36 135.5 158.34 C 140.89 152.20000000000002 149.25 149.57 155.64 152 C 157.04999999999998 152.53 158.20999999999998 153.55 158.20999999999998 154.27 C 158.20999999999998 157.38000000000002 150.09999999999997 169.13 143.17999999999998 176.03 C 137.46999999999997 181.73 133.60999999999999 184.55 127.17999999999998 187.73 C 122.51999999999998 190.03 117.64999999999998 192.20999999999998 116.36999999999998 192.56 C 114.18999999999997 193.17000000000002 114.10999999999997 193.06 115.27999999999997 190.86 z" stroke-linecap="round" />
</g>
		<g transform="matrix(1 0 0 1 -185.94 53.69)"  >
<path style="stroke: none; stroke-width: 1; stroke-dasharray: none; stroke-linecap: butt; stroke-dashoffset: 0; stroke-linejoin: miter; stroke-miterlimit: 4; fill: rgb(0,0,0); fill-rule: nonzero; opacity: 1;" vector-effect="non-scaling-stroke"  transform=" translate(-66.06, -305.69)" d="M 53.403 313.38 C 53.784 305.46 54.416 302.24 56.477 297.74 C 59.205 291.78000000000003 63.653999999999996 288.03000000000003 68.006 288.02 C 73.633 288.01 79.206 293.64 79.206 299.32 C 79.206 303.63 74.893 308.27 63.81400000000001 315.88 L 52.92200000000001 323.36 L 53.40300000000001 313.38 z" stroke-linecap="round" />
</g>
</g>
</g>
<g transform="matrix(0 0 0 0 0 0)"  >
<g style=""   >
</g>
</g>
<g transform="matrix(0 0 0 0 0 0)"  >
<g style=""   >
</g>
</g>
<g transform="matrix(2.79 1.15 -0.12 0.29 338.75 406.73)" id="a4f5d37c-62cc-4653-87dc-3633cd8ac70d"  >
<rect style="stroke: rgb(0,0,0); stroke-width: 0; stroke-dasharray: none; stroke-linecap: butt; stroke-dashoffset: 0; stroke-linejoin: miter; stroke-miterlimit: 4; fill: rgb(0,0,0); fill-rule: nonzero; opacity: 1;" vector-effect="non-scaling-stroke"  x="-37.165" y="-37.165" rx="0" ry="0" width="74.33" height="74.33" />
</g>
<g transform="matrix(1.52 1.52 -0.22 0.22 208.81 223.8)" id="a4f5d37c-62cc-4653-87dc-3633cd8ac70d"  >
<rect style="stroke: rgb(0,0,0); stroke-width: 0; stroke-dasharray: none; stroke-linecap: butt; stroke-dashoffset: 0; stroke-linejoin: miter; stroke-miterlimit: 4; fill: rgb(0,0,0); fill-rule: nonzero; opacity: 1;" vector-effect="non-scaling-stroke"  x="-37.165" y="-37.165" rx="0" ry="0" width="74.33" height="74.33" />
</g>
<g transform="matrix(2.75 -1.25 0.13 0.28 270 345.44)" id="a4f5d37c-62cc-4653-87dc-3633cd8ac70d"  >
<rect style="stroke: rgb(0,0,0); stroke-width: 0; stroke-dasharray: none; stroke-linecap: butt; stroke-dashoffset: 0; stroke-linejoin: miter; stroke-miterlimit: 4; fill: rgb(0,0,0); fill-rule: nonzero; opacity: 1;" vector-effect="non-scaling-stroke"  x="-37.165" y="-37.165" rx="0" ry="0" width="74.33" height="74.33" />
</g>
<g transform="matrix(2.79 1.15 -0.12 0.29 326.92 214.14)" id="a4f5d37c-62cc-4653-87dc-3633cd8ac70d"  >
<rect style="stroke: rgb(0,0,0); stroke-width: 0; stroke-dasharray: none; stroke-linecap: butt; stroke-dashoffset: 0; stroke-linejoin: miter; stroke-miterlimit: 4; fill: rgb(0,0,0); fill-rule: nonzero; opacity: 1;" vector-effect="non-scaling-stroke"  x="-37.165" y="-37.165" rx="0" ry="0" width="74.33" height="74.33" />
</g>
</svg>