<?xml version="1.0" encoding="UTF-8" standalone="no" ?>
<!DOCTYPE svg PUBLIC "-//W3C//DTD SVG 1.1//EN" "http://www.w3.org/Graphics/SVG/1.1/DTD/svg11.dtd">
<svg xmlns="http://www.w3.org/2000/svg" xmlns:xlink="http://www.w3.org/1999/xlink" version="1.1" width="540" height="540" viewBox="0 0 540 540" xml:space="preserve">
<desc>Created with Fabric.js 5.2.4</desc>
<defs>
</defs>
<rect x="0" y="0" width="100%" height="100%" fill="transparent"></rect>
<g transform="matrix(0 0 0 0 0 0)" id="8e901bd9-f91b-44a5-a070-406ff39325d3"  >
</g>
<g transform="matrix(1 0 0 1 270 270)" id="269052c4-326c-4559-98c1-44b26682010f"  >
<rect style="stroke: none; stroke-width: 1; stroke-dasharray: none; stroke-linecap: butt; stroke-dashoffset: 0; stroke-linejoin: miter; stroke-miterlimit: 4; fill: rgb(255,255,255); fill-rule: nonzero; opacity: 1; visibility: hidden;" vector-effect="non-scaling-stroke"  x="-270" y="-270" rx="0" ry="0" width="540" height="540" />
</g>
<g transform="matrix(0 0 0 0 0 0)"  >
<g style=""   >
</g>
</g>
<g transform="matrix(0 0 0 0 0 0)"  >
<g style=""   >
</g>
</g>
<g transform="matrix(1 0 0 1 270 270)"  >
<g style="" vector-effect="non-scaling-stroke"   >
		<g transform="matrix(1 0 0 1 0 0)"  >
<path style="stroke: none; stroke-width: 1; stroke-dasharray: none; stroke-linecap: butt; stroke-dashoffset: 0; stroke-linejoin: miter; stroke-miterlimit: 4; fill: rgb(0,0,0); fill-rule: nonzero; opacity: 1;" vector-effect="non-scaling-stroke"  transform=" translate(-252, -252)" d="M 86.083 448.55 C 81.547 446.07 81.051 443.12 81.386 420.61 L 81.695 399.87 L 84.5 397.45 C 87.037 395.27 88.211 395.03999999999996 96.75 395.03999999999996 L 106.19 395.03999999999996 L 106.2 377.28999999999996 C 106.2 361.46 106.41 359.21999999999997 108.13000000000001 356.53999999999996 C 109.2 354.89 118.63000000000001 344.53999999999996 129.09 333.53999999999996 L 148.13 313.53999999999996 L 148.15 242.53999999999996 L 148.18 171.53999999999996 L 124.64000000000001 153.63999999999996 C 111.70000000000002 143.79999999999995 100.68 134.93999999999997 100.15000000000002 133.95999999999995 C 99.59500000000001 132.91999999999996 99.19500000000002 117.47999999999995 99.19500000000002 97.05799999999995 C 99.19500000000002 58.64599999999995 99.35800000000002 57.45999999999995 104.96000000000002 55.14099999999995 C 107.00000000000003 54.29499999999995 116.55000000000003 54.04099999999995 138.48000000000002 54.24999999999995 C 176.45000000000002 54.61199999999995 173.54000000000002 53.19399999999995 174.03000000000003 71.56699999999995 L 174.36000000000004 84.04199999999994 L 191.28000000000003 84.04199999999994 L 208.19000000000003 84.04199999999994 L 208.19000000000003 73.50999999999995 C 208.19000000000003 61.28199999999995 209.53000000000003 56.97599999999995 213.87000000000003 55.178999999999945 C 216.01000000000002 54.28999999999994 226.61000000000004 54.04599999999994 253.96000000000004 54.25699999999995 C 299.49 54.60699999999995 295.53000000000003 52.97799999999995 296.03000000000003 71.56699999999995 L 296.36 84.04199999999994 L 313.28000000000003 84.04199999999994 L 330.19000000000005 84.04199999999994 L 330.19000000000005 72.99299999999994 C 330.19000000000005 60.57999999999994 331.33000000000004 57.05699999999994 335.96000000000004 55.140999999999934 C 338.00000000000006 54.29499999999994 347.55 54.04099999999993 369.48 54.249999999999936 C 399.87 54.539999999999935 400.16 54.56299999999994 402.42 56.81899999999994 C 404.69 59.09399999999994 404.69 59.127999999999936 404.98 95.68999999999994 C 405.22 125.92999999999994 405.02000000000004 132.64999999999995 403.85 134.40999999999994 C 403.07000000000005 135.57999999999993 392.04 144.41999999999993 379.32000000000005 154.03999999999994 L 356.21000000000004 171.53999999999994 L 356.21000000000004 242.53999999999994 L 356.20000000000005 313.53999999999996 L 376.31000000000006 335.02 C 387.37000000000006 346.84 396.82000000000005 357.54999999999995 397.31000000000006 358.84 C 397.80000000000007 360.11999999999995 398.19000000000005 368.75 398.19000000000005 378.01 L 398.19000000000005 394.84999999999997 L 408.1700000000001 395.2 C 423.2900000000001 395.71999999999997 422.69000000000005 394.59 422.69000000000005 422.53999999999996 C 422.69000000000005 444.56999999999994 422.65000000000003 445.03 420.4200000000001 447.26 L 418.1400000000001 449.53999999999996 L 253.4200000000001 449.76 C 112.4800000000001 449.94 88.3200000000001 449.77 86.0800000000001 448.55 L 86.0830000000001 448.55 z" stroke-linecap="round" />
</g>
		<g transform="matrix(1 0 0 1 0.19 -155.46)"  >
<path style="stroke: none; stroke-width: 1; stroke-dasharray: none; stroke-linecap: butt; stroke-dashoffset: 0; stroke-linejoin: miter; stroke-miterlimit: 4; fill: rgb(255,255,255); fill-rule: nonzero; opacity: 1;" vector-effect="non-scaling-stroke"  transform=" translate(-252.19, -96.54)" d="M 387.19 96.542 L 387.19 72.042 L 367.78 72.042 L 348.35999999999996 72.042 L 348.03 84.517 C 347.53999999999996 102.78999999999999 350.04999999999995 101.47 314.98999999999995 101.84 C 294.92999999999995 102.05 285.99999999999994 101.79 283.9599999999999 100.95 C 279.3299999999999 99.028 278.18999999999994 95.509 278.18999999999994 83.092 L 278.18999999999994 72.042 L 252.18999999999994 72.042 L 226.18999999999994 72.042 L 226.18999999999994 83.987 C 226.18999999999994 95.169 226.03999999999994 96.11 223.77999999999994 98.737 L 221.36999999999995 101.53999999999999 L 193.09999999999994 101.83999999999999 C 172.95999999999992 102.04999999999998 163.99999999999994 101.78999999999999 161.95999999999992 100.94999999999999 C 157.32999999999993 99.02799999999999 156.1899999999999 95.50899999999999 156.1899999999999 83.09199999999998 L 156.1899999999999 72.04199999999999 L 136.6899999999999 72.04199999999999 L 117.18999999999991 72.04199999999999 L 117.18999999999991 96.54199999999999 L 117.18999999999991 121.03999999999999 L 252.1899999999999 121.03999999999999 L 387.18999999999994 121.03999999999999 L 387.18999999999994 96.54199999999999 z" stroke-linecap="round" />
</g>
		<g transform="matrix(1 0 0 1 0.26 -103.4)"  >
<path style="stroke: none; stroke-width: 1; stroke-dasharray: none; stroke-linecap: butt; stroke-dashoffset: 0; stroke-linejoin: miter; stroke-miterlimit: 4; fill: rgb(255,255,255); fill-rule: nonzero; opacity: 1;" vector-effect="non-scaling-stroke"  transform=" translate(-252.26, -148.61)" d="M 357.47 148.79 L 369.61 139.54 L 310.90000000000003 139.28 C 278.61 139.14000000000001 225.80000000000004 139.14000000000001 193.55000000000004 139.28 L 134.91000000000003 139.54 L 146.8 148.73999999999998 L 158.69 157.93999999999997 L 252.01 157.98999999999998 L 345.33 158.04 L 357.46999999999997 148.79 z" stroke-linecap="round" />
</g>
		<g transform="matrix(1 0 0 1 0.19 -9.96)"  >
<path style="stroke: none; stroke-width: 1; stroke-dasharray: none; stroke-linecap: butt; stroke-dashoffset: 0; stroke-linejoin: miter; stroke-miterlimit: 4; fill: rgb(255,255,255); fill-rule: nonzero; opacity: 1;" vector-effect="non-scaling-stroke"  transform=" translate(-252.19, -242.04)" d="M 338.19 242.04 L 338.19 176.04 L 252.19 176.04 L 166.19 176.04 L 166.19 242.04 L 166.19 308.03999999999996 L 252.19 308.03999999999996 L 338.19 308.03999999999996 L 338.19 242.03999999999996 z" stroke-linecap="round" />
</g>
		<g transform="matrix(1 0 0 1 -0.31 87.54)"  >
<path style="stroke: none; stroke-width: 1; stroke-dasharray: none; stroke-linecap: butt; stroke-dashoffset: 0; stroke-linejoin: miter; stroke-miterlimit: 4; fill: rgb(255,255,255); fill-rule: nonzero; opacity: 1;" vector-effect="non-scaling-stroke"  transform=" translate(-251.69, -339.54)" d="M 366.52 350.73 C 365.51 349.46000000000004 359.96999999999997 343.38 354.19 337.23 L 343.69 326.04 L 252.12 326.04 L 160.54000000000002 326.04 L 147.79000000000002 339.54 L 135.03000000000003 353.04 L 251.69000000000003 353.04 L 368.34000000000003 353.04 L 366.52000000000004 350.73 z" stroke-linecap="round" />
</g>
		<g transform="matrix(1 0 0 1 0.19 131.04)"  >
<path style="stroke: none; stroke-width: 1; stroke-dasharray: none; stroke-linecap: butt; stroke-dashoffset: 0; stroke-linejoin: miter; stroke-miterlimit: 4; fill: rgb(255,255,255); fill-rule: nonzero; opacity: 1;" vector-effect="non-scaling-stroke"  transform=" translate(-252.19, -383.04)" d="M 380.19 383.04 L 380.19 371.04 L 252.19 371.04 L 124.19 371.04 L 124.19 383.04 L 124.19 395.04 L 252.19 395.04 L 380.19 395.04 L 380.19 383.04 z" stroke-linecap="round" />
</g>
		<g transform="matrix(1 0 0 1 0.19 170.54)"  >
<path style="stroke: none; stroke-width: 1; stroke-dasharray: none; stroke-linecap: butt; stroke-dashoffset: 0; stroke-linejoin: miter; stroke-miterlimit: 4; fill: rgb(255,255,255); fill-rule: nonzero; opacity: 1;" vector-effect="non-scaling-stroke"  transform=" translate(-252.19, -422.54)" d="M 405.19 422.54 L 405.19 413.04 L 252.19 413.04 L 99.19 413.04 L 99.195 422.54 L 99.195 432.04 L 252.195 432.04 L 405.185 432.04 L 405.185 422.54 z" stroke-linecap="round" />
</g>
</g>
</g>
<g transform="matrix(3.21 1.77 -0.15 0.27 252.56 294.83)" id="a4f5d37c-62cc-4653-87dc-3633cd8ac70d"  >
<rect style="stroke: rgb(0,0,0); stroke-width: 0; stroke-dasharray: none; stroke-linecap: butt; stroke-dashoffset: 0; stroke-linejoin: miter; stroke-miterlimit: 4; fill: rgb(0,0,0); fill-rule: nonzero; opacity: 1;" vector-effect="non-scaling-stroke"  x="-37.165" y="-37.165" rx="0" ry="0" width="74.33" height="74.33" />
</g>
<g transform="matrix(1.52 1.52 -0.22 0.22 270 239.16)" id="a4f5d37c-62cc-4653-87dc-3633cd8ac70d"  >
<rect style="stroke: rgb(0,0,0); stroke-width: 0; stroke-dasharray: none; stroke-linecap: butt; stroke-dashoffset: 0; stroke-linejoin: miter; stroke-miterlimit: 4; fill: rgb(0,0,0); fill-rule: nonzero; opacity: 1;" vector-effect="non-scaling-stroke"  x="-37.165" y="-37.165" rx="0" ry="0" width="74.33" height="74.33" />
</g>
<g transform="matrix(2.11 0.42 -0.06 0.3 318.08 177.81)" id="a4f5d37c-62cc-4653-87dc-3633cd8ac70d"  >
<rect style="stroke: rgb(0,0,0); stroke-width: 0; stroke-dasharray: none; stroke-linecap: butt; stroke-dashoffset: 0; stroke-linejoin: miter; stroke-miterlimit: 4; fill: rgb(0,0,0); fill-rule: nonzero; opacity: 1;" vector-effect="non-scaling-stroke"  x="-37.165" y="-37.165" rx="0" ry="0" width="74.33" height="74.33" />
</g>
<g transform="matrix(1.88 1.04 -0.15 0.27 291.16 394.03)" id="a4f5d37c-62cc-4653-87dc-3633cd8ac70d"  >
<rect style="stroke: rgb(0,0,0); stroke-width: 0; stroke-dasharray: none; stroke-linecap: butt; stroke-dashoffset: 0; stroke-linejoin: miter; stroke-miterlimit: 4; fill: rgb(0,0,0); fill-rule: nonzero; opacity: 1;" vector-effect="non-scaling-stroke"  x="-37.165" y="-37.165" rx="0" ry="0" width="74.33" height="74.33" />
</g>
</svg>