<?xml version="1.0" encoding="UTF-8" standalone="no" ?>
<!DOCTYPE svg PUBLIC "-//W3C//DTD SVG 1.1//EN" "http://www.w3.org/Graphics/SVG/1.1/DTD/svg11.dtd">
<svg xmlns="http://www.w3.org/2000/svg" xmlns:xlink="http://www.w3.org/1999/xlink" version="1.1" width="540" height="540" viewBox="0 0 540 540" xml:space="preserve">
<desc>Created with Fabric.js 5.2.4</desc>
<defs>
</defs>
<rect x="0" y="0" width="100%" height="100%" fill="transparent"></rect>
<g transform="matrix(1 0 0 1 270 270)" id="269052c4-326c-4559-98c1-44b26682010f"  >
<rect style="stroke: none; stroke-width: 1; stroke-dasharray: none; stroke-linecap: butt; stroke-dashoffset: 0; stroke-linejoin: miter; stroke-miterlimit: 4; fill: rgb(255,255,255); fill-rule: nonzero; opacity: 1; visibility: hidden;" vector-effect="non-scaling-stroke"  x="-270" y="-270" rx="0" ry="0" width="540" height="540" />
</g>
<g transform="matrix(0 0 0 0 0 0)" id="8e901bd9-f91b-44a5-a070-406ff39325d3"  >
</g>
<g transform="matrix(1 0 0 1 270 270)"  >
<g style="" vector-effect="non-scaling-stroke"   >
		<g transform="matrix(1 0 0 1 0 0)"  >
<path style="stroke: none; stroke-width: 1; stroke-dasharray: none; stroke-linecap: butt; stroke-dashoffset: 0; stroke-linejoin: miter; stroke-miterlimit: 4; fill: rgb(0,0,0); fill-rule: nonzero; opacity: 1;" vector-effect="non-scaling-stroke"  transform=" translate(-252, -252)" d="M 186 482.9 C 156.82 481.37 128.97 474.4 107.65 463.29999999999995 C 97.239 457.86999999999995 94 454.90999999999997 94 450.81999999999994 C 94 449.42999999999995 98.271 438.49999999999994 103.49 426.50999999999993 L 112.97999999999999 404.7199999999999 L 104.05999999999999 384.2399999999999 L 95.13699999999999 363.7499999999999 L 76.89799999999998 341.4199999999999 C 66.86699999999998 329.13999999999993 58.20099999999998 318.4999999999999 57.64099999999998 317.7699999999999 C 57.080999999999975 317.03999999999996 51.86599999999998 278.4199999999999 46.052999999999976 231.95999999999992 L 35.48399999999997 147.4799999999999 L 28.870999999999974 145.2599999999999 C 20.790999999999976 142.5399999999999 15.721999999999975 138.7999999999999 11.854999999999976 132.7199999999999 C 5.028499999999975 121.96999999999991 4.374799999999976 110.36999999999992 9.956799999999976 99.03299999999992 C 15.672999999999977 87.42199999999991 26.139799999999976 81.21399999999991 39.99979999999998 81.21399999999991 C 53.85979999999998 81.21399999999991 64.32679999999998 87.42199999999991 70.04279999999997 99.03299999999992 C 76.66779999999997 112.48999999999992 74.71079999999998 124.67999999999992 63.60979999999997 139.1099999999999 C 63.03279999999997 139.8599999999999 72.85879999999997 161.0999999999999 91.60179999999997 199.6299999999999 L 120.47979999999997 258.9999999999999 L 124.67979999999997 186.0499999999999 C 126.97979999999997 145.9299999999999 128.89979999999997 111.6399999999999 128.92979999999997 109.86999999999989 C 128.98979999999997 107.11999999999989 128.43979999999996 106.3499999999999 125.24979999999996 104.69999999999989 C 118.51979999999996 101.22999999999989 113.21979999999996 95.79499999999989 109.78979999999996 88.82499999999989 C 101.38979999999995 71.75499999999988 108.76979999999996 52.40799999999989 126.99979999999996 43.72799999999989 C 138.27979999999997 38.356999999999886 152.12979999999996 40.79499999999989 162.70979999999997 50.01399999999989 C 165.19979999999998 52.185999999999886 168.25979999999998 56.40399999999989 170.20979999999997 60.36699999999989 C 173.04979999999998 66.13699999999989 173.49979999999996 68.0879999999999 173.49979999999996 74.59599999999989 C 173.49979999999996 81.10399999999989 173.04979999999998 83.0549999999999 170.20979999999997 88.82499999999989 C 168.26979999999998 92.7549999999999 165.24979999999996 96.93699999999988 162.87979999999996 98.96799999999989 L 158.83979999999997 102.41999999999989 L 183.66979999999995 174.4899999999999 C 197.32979999999995 214.12999999999988 208.74979999999994 246.56999999999988 209.03979999999996 246.5799999999999 C 209.33979999999997 246.5899999999999 215.89979999999997 210.2599999999999 223.60979999999995 165.8599999999999 L 237.62979999999996 85.1229999999999 L 233.33979999999997 82.2799999999999 C 223.76979999999998 75.9439999999999 218.51979999999998 66.1289999999999 218.50979999999996 54.5749999999999 C 218.48979999999995 41.1299999999999 225.91979999999995 29.956999999999905 238.99979999999996 23.727999999999902 C 246.78979999999996 20.0209999999999 257.2098 20.0209999999999 264.99979999999994 23.727999999999902 C 273.1497999999999 27.608999999999902 278.4497999999999 32.732999999999905 282.2097999999999 40.366999999999905 C 285.0497999999999 46.1389999999999 285.49979999999994 48.083999999999904 285.4897999999999 54.5749999999999 C 285.4797999999999 66.1289999999999 280.2297999999999 75.9439999999999 270.6597999999999 82.2799999999999 L 266.3697999999999 85.1229999999999 L 280.38979999999987 165.8599999999999 C 288.09979999999985 210.2599999999999 294.65979999999985 246.58999999999992 294.95979999999986 246.5799999999999 C 295.2497999999999 246.5699999999999 306.66979999999984 214.12999999999988 320.32979999999986 174.4899999999999 L 345.15979999999985 102.4199999999999 L 341.1197999999998 98.9679999999999 C 338.7497999999998 96.9369999999999 335.72979999999984 92.75499999999991 333.78979999999984 88.8249999999999 C 325.38979999999987 71.75499999999991 332.76979999999986 52.4079999999999 350.9997999999998 43.7279999999999 C 358.78979999999984 40.0209999999999 369.2097999999998 40.0209999999999 376.9997999999998 43.7279999999999 C 385.1497999999998 47.6089999999999 390.4497999999998 52.732999999999905 394.2097999999998 60.366999999999905 C 397.0497999999998 66.1369999999999 397.4997999999998 68.08799999999991 397.4997999999998 74.5959999999999 C 397.4997999999998 81.1039999999999 397.04979999999983 83.05499999999991 394.2097999999998 88.8249999999999 C 390.7797999999998 95.7949999999999 385.4797999999998 101.2299999999999 378.7497999999998 104.6999999999999 C 375.5597999999998 106.34999999999991 375.0097999999998 107.1199999999999 375.0697999999998 109.8699999999999 C 375.0997999999998 111.6399999999999 377.0197999999998 145.9299999999999 379.3197999999998 186.0499999999999 L 383.5197999999998 258.9999999999999 L 412.3997999999998 199.62999999999988 C 431.1397999999998 161.09999999999988 440.9697999999998 139.85999999999987 440.3897999999998 139.10999999999987 C 429.2897999999998 124.67999999999986 427.3297999999998 112.48999999999987 433.9597999999998 99.03299999999987 C 439.6697999999998 87.42199999999987 450.1397999999998 81.21399999999987 463.9997999999998 81.21399999999987 C 477.85979999999984 81.21399999999987 488.3297999999998 87.42199999999987 494.03979999999984 99.03299999999987 C 499.6297999999998 110.36999999999988 498.96979999999985 121.96999999999987 492.14979999999986 132.71999999999986 C 488.27979999999985 138.79999999999987 483.20979999999986 142.53999999999985 475.1297999999999 145.25999999999985 L 468.51979999999986 147.47999999999985 L 457.94979999999987 231.95999999999987 C 452.1297999999999 278.41999999999985 446.9197999999999 317.03999999999985 446.3597999999999 317.76999999999987 C 445.7997999999999 318.4999999999999 437.1297999999999 329.1399999999999 427.0997999999999 341.41999999999985 L 408.8597999999999 363.74999999999983 L 399.9397999999999 384.23999999999984 L 391.01979999999986 404.71999999999986 L 400.50979999999987 426.5099999999999 C 405.7297999999999 438.4999999999999 409.9997999999999 449.4299999999999 409.9997999999999 450.8199999999999 C 409.9997999999999 454.90999999999985 406.75979999999987 457.8699999999999 396.3497999999999 463.2999999999999 C 379.8297999999999 471.8999999999999 359.7397999999999 477.9899999999999 337.0597999999999 481.26999999999987 C 328.5397999999999 482.4999999999999 313.44979999999987 482.83999999999986 258.9997999999999 482.9899999999999 C 221.87979999999988 483.0999999999999 189.02979999999988 483.0599999999999 185.99979999999988 482.8999999999999 z" stroke-linecap="round" />
</g>
		<g transform="matrix(1 0 0 1 0 -197.4)"  >
<path style="stroke: none; stroke-width: 1; stroke-dasharray: none; stroke-linecap: butt; stroke-dashoffset: 0; stroke-linejoin: miter; stroke-miterlimit: 4; fill: rgb(255,255,255); fill-rule: nonzero; opacity: 1;" vector-effect="non-scaling-stroke"  transform=" translate(-252, -54.6)" d="M 260.08 68.322 C 265.26 64.83 268 60.084 268 54.596000000000004 C 268 42.39 253.73 34.257000000000005 243.92000000000002 40.870000000000005 C 238.74 44.36300000000001 236.00000000000003 49.10900000000001 236.00000000000003 54.596000000000004 C 236.00000000000003 66.803 250.27000000000004 74.935 260.08000000000004 68.322 z" stroke-linecap="round" />
</g>
		<g transform="matrix(1 0 0 1 112 -177.4)"  >
<path style="stroke: none; stroke-width: 1; stroke-dasharray: none; stroke-linecap: butt; stroke-dashoffset: 0; stroke-linejoin: miter; stroke-miterlimit: 4; fill: rgb(255,255,255); fill-rule: nonzero; opacity: 1;" vector-effect="non-scaling-stroke"  transform=" translate(-364, -74.6)" d="M 372.08 88.322 C 377.26 84.83 380 80.084 380 74.596 C 380 69.10900000000001 377.26 64.363 372.08 60.870000000000005 C 362.27 54.257000000000005 348 62.39000000000001 348 74.596 C 348 86.803 362.27 94.935 372.08 88.322 z" stroke-linecap="round" />
</g>
		<g transform="matrix(1 0 0 1 -111.97 -177.4)"  >
<path style="stroke: none; stroke-width: 1; stroke-dasharray: none; stroke-linecap: butt; stroke-dashoffset: 0; stroke-linejoin: miter; stroke-miterlimit: 4; fill: rgb(255,255,255); fill-rule: nonzero; opacity: 1;" vector-effect="non-scaling-stroke"  transform=" translate(-140.03, -74.6)" d="M 148.08 88.322 C 158.72000000000003 81.152 158.72000000000003 68.04 148.08 60.870000000000005 C 138.27 54.257000000000005 124.00000000000001 62.39000000000001 124.00000000000001 74.596 C 124.00000000000001 86.803 138.27 94.935 148.08 88.322 z" stroke-linecap="round" />
</g>
		<g transform="matrix(1 0 0 1 212 -137.9)"  >
<path style="stroke: none; stroke-width: 1; stroke-dasharray: none; stroke-linecap: butt; stroke-dashoffset: 0; stroke-linejoin: miter; stroke-miterlimit: 4; fill: rgb(255,255,255); fill-rule: nonzero; opacity: 1;" vector-effect="non-scaling-stroke"  transform=" translate(-464, -114.09)" d="M 471.98 127.84 C 477.16 125.24000000000001 480 120.37 480 114.10000000000001 C 480 104.87 473.53 98.599 464 98.599 C 454.47 98.599 448 104.87 448 114.10000000000001 C 448 123.32000000000001 454.47 129.59 464 129.59 C 466.48 129.59 470.07 128.81 471.98 127.84 z" stroke-linecap="round" />
</g>
		<g transform="matrix(1 0 0 1 -212 -137.87)"  >
<path style="stroke: none; stroke-width: 1; stroke-dasharray: none; stroke-linecap: butt; stroke-dashoffset: 0; stroke-linejoin: miter; stroke-miterlimit: 4; fill: rgb(255,255,255); fill-rule: nonzero; opacity: 1;" vector-effect="non-scaling-stroke"  transform=" translate(-40, -114.13)" d="M 47.98 127.84 C 58.800999999999995 122.41 58.800999999999995 105.78 47.98 100.35000000000001 C 43.528 98.111 36.471999999999994 98.111 32.019999999999996 100.35000000000001 C 21.198999999999998 105.78 21.198999999999998 122.41000000000001 32.019999999999996 127.84 C 33.934 128.81 37.525 129.59 40 129.59 C 42.475 129.59 46.066 128.81 47.980000000000004 127.84 z" stroke-linecap="round" />
</g>
		<g transform="matrix(1 0 0 1 -0.24 -61.95)"  >
<path style="stroke: none; stroke-width: 1; stroke-dasharray: none; stroke-linecap: butt; stroke-dashoffset: 0; stroke-linejoin: miter; stroke-miterlimit: 4; fill: rgb(255,255,255); fill-rule: nonzero; opacity: 1;" vector-effect="non-scaling-stroke"  transform=" translate(-251.76, -190.05)" d="M 230.92 268.01 C 234.54 266.03 239.52999999999997 262.73 242 260.67 C 250.97 253.20000000000002 253.33 253.11 261.13 259.93 C 265.58 263.83 279.73 272.27 280.43 271.45 C 280.90000000000003 270.9 252.57 108.6 252 108.6 C 251.72 108.6 245.25 144.70999999999998 237.6 188.85 C 229.96 232.99 223.5 269.65999999999997 223.25 270.35 C 222.54 272.27000000000004 223.8 271.89000000000004 230.92 268.01000000000005 z" stroke-linecap="round" />
</g>
		<g transform="matrix(1 0 0 1 83.43 -50.01)"  >
<path style="stroke: none; stroke-width: 1; stroke-dasharray: none; stroke-linecap: butt; stroke-dashoffset: 0; stroke-linejoin: miter; stroke-miterlimit: 4; fill: rgb(255,255,255); fill-rule: nonzero; opacity: 1;" vector-effect="non-scaling-stroke"  transform=" translate(-335.43, -201.98)" d="M 366.53 274.85 C 366.2 271.13 364.15 235.92000000000002 361.96999999999997 196.60000000000002 C 359.78999999999996 157.27000000000004 357.89 123.91000000000003 357.74999999999994 122.45000000000002 C 357.60999999999996 120.92000000000002 346.40999999999997 152.00000000000003 331.09999999999997 196.45000000000002 C 316.58 238.61 304.46 273.73 304.17999999999995 274.51 C 303.31999999999994 276.84999999999997 317.15999999999997 275 326.96999999999997 271.46 C 339.47999999999996 266.95 341.30999999999995 266.83 345.75 270.23999999999995 C 349.47 273.0799999999999 364.76 281.50999999999993 366.31 281.56999999999994 C 366.76 281.5799999999999 366.85 278.55999999999995 366.53000000000003 274.8499999999999 z" stroke-linecap="round" />
</g>
		<g transform="matrix(1 0 0 1 -83.46 -50)"  >
<path style="stroke: none; stroke-width: 1; stroke-dasharray: none; stroke-linecap: butt; stroke-dashoffset: 0; stroke-linejoin: miter; stroke-miterlimit: 4; fill: rgb(255,255,255); fill-rule: nonzero; opacity: 1;" vector-effect="non-scaling-stroke"  transform=" translate(-168.54, -202)" d="M 145.27 277.98 C 149.25 275.98 154.65 272.79 157.28 270.87 C 162.89000000000001 266.78000000000003 164.15 266.82 177.03 271.46 C 186.84 275 200.68 276.84999999999997 199.82 274.51 C 199.54 273.73 187.42 238.60999999999999 172.89999999999998 196.45 C 157.58999999999997 152 146.39 120.91999999999999 146.24999999999997 122.44999999999999 C 146.10999999999999 123.90999999999998 144.20999999999998 157.26999999999998 142.02999999999997 196.6 C 139.84999999999997 235.92 137.79999999999998 271.13 137.46999999999997 274.85 C 137.14999999999998 278.56 137.13999999999996 281.6 137.45999999999998 281.6 C 137.79 281.6 141.29999999999998 279.97 145.26999999999998 277.98 z" stroke-linecap="round" />
</g>
		<g transform="matrix(1 0 0 1 166.9 -19.93)"  >
<path style="stroke: none; stroke-width: 1; stroke-dasharray: none; stroke-linecap: butt; stroke-dashoffset: 0; stroke-linejoin: miter; stroke-miterlimit: 4; fill: rgb(255,255,255); fill-rule: nonzero; opacity: 1;" vector-effect="non-scaling-stroke"  transform=" translate(-418.9, -232.07)" d="M 439.94 232.1 C 444.34 196.95 447.81 168.07 447.65 167.91 C 447.39 167.66 391.72999999999996 281.64 390.21 285.51 C 389.75 286.7 391.28999999999996 286.78999999999996 400.08 286.09999999999997 C 417.81 284.71999999999997 416.81 284.53 424.54999999999995 290.80999999999995 C 428.36999999999995 293.90999999999997 431.59 296.3399999999999 431.71 296.21999999999997 C 431.84 296.09 435.53999999999996 267.23999999999995 439.94 232.09999999999997 z" stroke-linecap="round" />
</g>
		<g transform="matrix(1 0 0 1 -166.95 -20.06)"  >
<path style="stroke: none; stroke-width: 1; stroke-dasharray: none; stroke-linecap: butt; stroke-dashoffset: 0; stroke-linejoin: miter; stroke-miterlimit: 4; fill: rgb(255,255,255); fill-rule: nonzero; opacity: 1;" vector-effect="non-scaling-stroke"  transform=" translate(-85.05, -231.94)" d="M 86.55 285.77 C 88.536 284.72999999999996 90.536 284.68 95.977 285.52 C 105.68 287.03 114.35000000000001 286.94 113.72 285.34999999999997 C 112.24 281.54999999999995 56.599 167.65999999999997 56.355 167.90999999999997 C 56.193999999999996 168.06999999999996 59.641999999999996 196.74999999999997 64.01899999999999 231.64999999999998 C 68.395 266.53999999999996 71.981 295.46 71.98799999999999 295.90999999999997 C 71.99499999999998 296.35999999999996 74.70699999999998 294.55999999999995 78.01499999999999 291.90999999999997 C 81.323 289.26 85.16399999999999 286.49999999999994 86.54999999999998 285.77 z" stroke-linecap="round" />
</g>
		<g transform="matrix(1 0 0 1 0.12 60)"  >
<path style="stroke: none; stroke-width: 1; stroke-dasharray: none; stroke-linecap: butt; stroke-dashoffset: 0; stroke-linejoin: miter; stroke-miterlimit: 4; fill: rgb(255,255,255); fill-rule: nonzero; opacity: 1;" vector-effect="non-scaling-stroke"  transform=" translate(-252.11, -312)" d="M 113.07 346.04 C 203.23 315.03000000000003 300.77 315.04 390.94 346.05 C 395.04 347.46000000000004 398.71 348.27000000000004 399.1 347.85 C 401.53000000000003 345.28000000000003 425.95000000000005 315 425.93 314.6 C 425.91 314.32000000000005 422.7 311.59000000000003 418.79 308.52000000000004 L 411.68 302.95000000000005 L 406.09000000000003 303.87000000000006 C 388.75000000000006 306.7200000000001 363.24 301.12000000000006 344.71000000000004 290.39000000000004 L 337.92 286.46000000000004 L 330.21000000000004 288.99 C 305.04 297.25 279.77000000000004 293.75 257.25000000000006 278.87 L 252.00000000000006 275.4 L 246.75000000000006 278.87 C 234.00000000000006 287.29 219.31000000000006 292.3 204.45000000000005 293.28000000000003 C 194.10000000000005 293.96000000000004 185.09000000000003 292.70000000000005 173.79000000000005 288.99 L 166.08000000000004 286.46000000000004 L 159.29000000000005 290.39000000000004 C 140.76000000000005 301.12000000000006 115.25000000000006 306.72 97.90900000000005 303.87000000000006 L 92.31800000000005 302.95000000000005 L 85.21100000000006 308.52000000000004 C 81.30300000000005 311.59000000000003 78.19300000000005 314.41 78.30200000000005 314.8 C 78.47300000000006 315.41 105.21000000000005 348.6 105.53000000000006 348.6 C 105.60000000000005 348.6 108.99000000000005 347.45000000000005 113.07000000000006 346.04 z" stroke-linecap="round" />
</g>
		<g transform="matrix(1 0 0 1 0 114.69)"  >
<path style="stroke: none; stroke-width: 1; stroke-dasharray: none; stroke-linecap: butt; stroke-dashoffset: 0; stroke-linejoin: miter; stroke-miterlimit: 4; fill: rgb(255,255,255); fill-rule: nonzero; opacity: 1;" vector-effect="non-scaling-stroke"  transform=" translate(-252, -366.68)" d="M 151.2 384.76 C 217.38 363.34 286.62 363.34 352.79999999999995 384.76 C 361.21999999999997 387.48 370.06999999999994 390.55 372.46999999999997 391.58 C 375.64 392.94 376.97999999999996 393.13 377.34 392.28 C 377.60999999999996 391.63 380.52 384.96999999999997 383.78999999999996 377.46999999999997 L 389.73999999999995 363.84999999999997 L 386.11999999999995 362.68999999999994 C 319.15 341.2699999999999 260.3399999999999 335.73999999999995 194.49999999999994 344.66999999999996 C 169.66999999999996 348.03 147.15999999999994 353.33 117.87999999999994 362.68999999999994 L 114.25999999999993 363.84999999999997 L 120.20999999999994 377.46999999999997 C 123.47999999999993 384.96999999999997 126.38999999999993 391.63 126.65999999999994 392.28 C 127.01999999999994 393.13 128.35999999999993 392.94 131.52999999999994 391.58 C 133.92999999999995 390.55 142.77999999999994 387.47999999999996 151.19999999999993 384.76 z" stroke-linecap="round" />
</g>
		<g transform="matrix(1 0 0 1 0 159.1)"  >
<path style="stroke: none; stroke-width: 1; stroke-dasharray: none; stroke-linecap: butt; stroke-dashoffset: 0; stroke-linejoin: miter; stroke-miterlimit: 4; fill: rgb(255,255,255); fill-rule: nonzero; opacity: 1;" vector-effect="non-scaling-stroke"  transform=" translate(-252, -411.1)" d="M 151.5 426.08 C 171.05 421.25 192.36 417.51 212 415.44 C 228.29 413.73 275.71 413.73 292 415.44 C 319.32 418.31 357.82 426.2 377.75 433 C 381.74 434.36 385 435.3 385 435.07 C 385 434.84999999999997 382.81 429.59 380.13 423.38 C 374.34 409.95 375.26 410.6 349.78 402.15 C 332.42999999999995 396.39 312.51 391.90999999999997 291 388.91999999999996 C 273.47 386.48999999999995 230.53 386.48999999999995 213 388.91999999999996 C 191.49 391.90999999999997 171.57 396.39 154.22 402.15 C 128.74 410.59999999999997 129.66 409.95 123.87 423.38 C 121.19 429.59 119 434.85 119 435.07 C 119 435.3 122.26 434.36 126.25 433 C 130.24 431.64 141.6 428.53 151.5 426.08 z" stroke-linecap="round" />
</g>
		<g transform="matrix(1 0 0 1 0 196.59)"  >
<path style="stroke: none; stroke-width: 1; stroke-dasharray: none; stroke-linecap: butt; stroke-dashoffset: 0; stroke-linejoin: miter; stroke-miterlimit: 4; fill: rgb(255,255,255); fill-rule: nonzero; opacity: 1;" vector-effect="non-scaling-stroke"  transform=" translate(-252, -448.59)" d="M 337 463.28 C 350.86 461.27 359.5 459.26 370.87 455.38 L 380.23 452.19 L 373.37 449.86 C 362.17 446.07 335.58 439.82 319.5 437.2 C 294.6 433.14 281.07 432.12 252 432.12 C 222.93 432.12 209.4 433.14 184.5 437.2 C 168.42000000000002 439.82 141.82999999999998 446.07 130.63 449.86 L 123.77 452.19 L 133.13 455.4 C 148.28 460.59 166.59 463.88 186 464.9 C 189.02 465.06 221.88 465.09999999999997 259 464.98999999999995 C 313.33 464.84 328.55 464.49999999999994 337 463.28 z" stroke-linecap="round" />
</g>
</g>
</g>
<g transform="matrix(0 0 0 0 0 0)"  >
<g style=""   >
</g>
</g>
<g transform="matrix(0 0 0 0 0 0)"  >
<g style=""   >
</g>
</g>
<g transform="matrix(2.75 -1.25 0.13 0.28 270 359.44)" id="a4f5d37c-62cc-4653-87dc-3633cd8ac70d"  >
<rect style="stroke: rgb(0,0,0); stroke-width: 0; stroke-dasharray: none; stroke-linecap: butt; stroke-dashoffset: 0; stroke-linejoin: miter; stroke-miterlimit: 4; fill: rgb(0,0,0); fill-rule: nonzero; opacity: 1;" vector-effect="non-scaling-stroke"  x="-37.165" y="-37.165" rx="0" ry="0" width="74.33" height="74.33" />
</g>
<g transform="matrix(2.79 1.15 -0.12 0.29 352.37 270)" id="a4f5d37c-62cc-4653-87dc-3633cd8ac70d"  >
<rect style="stroke: rgb(0,0,0); stroke-width: 0; stroke-dasharray: none; stroke-linecap: butt; stroke-dashoffset: 0; stroke-linejoin: miter; stroke-miterlimit: 4; fill: rgb(0,0,0); fill-rule: nonzero; opacity: 1;" vector-effect="non-scaling-stroke"  x="-37.165" y="-37.165" rx="0" ry="0" width="74.33" height="74.33" />
</g>
<g transform="matrix(2.14 2.14 -0.22 0.22 291.45 363.25)" id="a4f5d37c-62cc-4653-87dc-3633cd8ac70d"  >
<rect style="stroke: rgb(0,0,0); stroke-width: 0; stroke-dasharray: none; stroke-linecap: butt; stroke-dashoffset: 0; stroke-linejoin: miter; stroke-miterlimit: 4; fill: rgb(0,0,0); fill-rule: nonzero; opacity: 1;" vector-effect="non-scaling-stroke"  x="-37.165" y="-37.165" rx="0" ry="0" width="74.33" height="74.33" />
</g>
<g transform="matrix(3.01 -0.23 0.02 0.31 228.7 454.41)" id="a4f5d37c-62cc-4653-87dc-3633cd8ac70d"  >
<rect style="stroke: rgb(0,0,0); stroke-width: 0; stroke-dasharray: none; stroke-linecap: butt; stroke-dashoffset: 0; stroke-linejoin: miter; stroke-miterlimit: 4; fill: rgb(0,0,0); fill-rule: nonzero; opacity: 1;" vector-effect="non-scaling-stroke"  x="-37.165" y="-37.165" rx="0" ry="0" width="74.33" height="74.33" />
</g>
<g transform="matrix(2.86 -0.98 0.1 0.29 140.68 211.45)" id="a4f5d37c-62cc-4653-87dc-3633cd8ac70d"  >
<rect style="stroke: rgb(0,0,0); stroke-width: 0; stroke-dasharray: none; stroke-linecap: butt; stroke-dashoffset: 0; stroke-linejoin: miter; stroke-miterlimit: 4; fill: rgb(0,0,0); fill-rule: nonzero; opacity: 1;" vector-effect="non-scaling-stroke"  x="-37.165" y="-37.165" rx="0" ry="0" width="74.33" height="74.33" />
</g>
</svg>