<?xml version="1.0" encoding="UTF-8" standalone="no" ?>
<!DOCTYPE svg PUBLIC "-//W3C//DTD SVG 1.1//EN" "http://www.w3.org/Graphics/SVG/1.1/DTD/svg11.dtd">
<svg xmlns="http://www.w3.org/2000/svg" xmlns:xlink="http://www.w3.org/1999/xlink" version="1.1" width="540" height="540" viewBox="0 0 540 540" xml:space="preserve">
<desc>Created with Fabric.js 5.2.4</desc>
<defs>
</defs>
<rect x="0" y="0" width="100%" height="100%" fill="transparent"></rect>
<g transform="matrix(1 0 0 1 270 270)" id="269052c4-326c-4559-98c1-44b26682010f"  >
<rect style="stroke: none; stroke-width: 1; stroke-dasharray: none; stroke-linecap: butt; stroke-dashoffset: 0; stroke-linejoin: miter; stroke-miterlimit: 4; fill: rgb(255,255,255); fill-rule: nonzero; opacity: 1; visibility: hidden;" vector-effect="non-scaling-stroke"  x="-270" y="-270" rx="0" ry="0" width="540" height="540" />
</g>
<g transform="matrix(0 0 0 0 0 0)" id="8e901bd9-f91b-44a5-a070-406ff39325d3"  >
</g>
<g transform="matrix(NaN NaN NaN NaN 0 0)"  >
<g style=""   >
</g>
</g>
<g transform="matrix(NaN NaN NaN NaN 0 0)"  >
<g style=""   >
</g>
</g>
<g transform="matrix(1 0 0 1 270 270)"  >
<g style="" vector-effect="non-scaling-stroke"   >
		<g transform="matrix(1 0 0 1 0 0)" id="path2558"  >
<path style="stroke: none; stroke-width: 1; stroke-dasharray: none; stroke-linecap: butt; stroke-dashoffset: 0; stroke-linejoin: miter; stroke-miterlimit: 4; fill: rgb(0,0,0); fill-rule: nonzero; opacity: 1;" vector-effect="non-scaling-stroke"  transform=" translate(-252, -252)" d="M 99.308 458.99 C 93.206 456.53000000000003 90.662 444.66 90.635 418.5 C 90.613 396.85 92.134 387.44 98.974 366.89 C 111.95 327.9 140.37 294.12 175.56 275.84999999999997 L 185.62 270.62999999999994 L 180.56 266.50999999999993 C 169.77 257.7199999999999 160.17000000000002 242.55999999999995 155.81 227.44999999999993 C 153.95 220.97999999999993 153.53 217.16999999999993 153.58 206.99999999999994 C 153.64000000000001 196.13999999999993 154.01000000000002 193.38999999999993 156.42000000000002 185.99999999999994 C 163.96 162.92999999999995 177.17000000000002 147.42999999999995 198 137.17999999999995 L 207.5 132.49999999999994 L 203.27 126.19999999999995 C 194.81 113.56999999999995 192.17000000000002 98.40399999999994 195.99 84.26499999999994 C 200.23000000000002 68.53199999999994 208.72 58.19299999999994 223.29000000000002 51.013999999999946 C 242.10000000000002 41.739999999999945 261.90000000000003 41.739999999999945 280.71000000000004 51.013999999999946 C 295.28000000000003 58.19299999999995 303.77000000000004 68.53199999999995 308.01000000000005 84.26499999999994 C 311.83000000000004 98.40399999999994 309.19000000000005 113.56999999999994 300.7300000000001 126.19999999999995 L 296.50000000000006 132.49999999999994 L 306.00000000000006 137.17999999999995 C 326.83000000000004 147.42999999999995 340.0400000000001 162.92999999999995 347.58000000000004 185.99999999999994 C 349.99000000000007 193.38999999999993 350.36 196.13999999999993 350.42 206.99999999999994 C 350.47 217.16999999999993 350.05 220.97999999999993 348.19 227.44999999999993 C 343.83 242.55999999999995 334.23 257.7199999999999 323.44 266.50999999999993 L 318.38 270.62999999999994 L 328.44 275.84999999999997 C 363.63 294.11999999999995 392.05 327.9 405.03 366.89 C 411.86999999999995 387.44 413.39 396.84999999999997 413.35999999999996 418.5 C 413.34 445.15 410.79999999999995 456.61 404.37999999999994 459.05 C 401.1499999999999 460.27000000000004 102.35999999999996 460.22 99.30999999999995 458.99 L 99.30799999999995 458.99 z" stroke-linecap="round" />
</g>
		<g transform="matrix(1 0 0 1 0 0.25)" id="path2384"  >
<path style="stroke: none; stroke-width: 1; stroke-dasharray: none; stroke-linecap: butt; stroke-dashoffset: 0; stroke-linejoin: miter; stroke-miterlimit: 4; fill: rgb(255,255,255); fill-rule: nonzero; opacity: 1;" vector-effect="non-scaling-stroke"  transform=" translate(-252, -252.25)" d="M 394.73 439.25 C 395.15000000000003 437.74 395.47 428.18 395.43 418 C 395.36 397.38 393.68 386.75 387.88 370.31 C 373.68 330.06 340.62 296.67 301 282.55 C 291.04 279.01 289.22 277.7 288.43 273.5 C 287.46 268.29 289.69 265.8 299.7 260.98 C 330.94 245.9 342.32 207.10000000000002 324.51 176.38000000000002 C 319.68 168.05 308.4 157.79000000000002 298.87 153.07000000000002 C 290.91 149.13000000000002 286.77 148.07000000000002 272.9 146.46 C 267.76 145.86 264.37 143.31 263.35999999999996 139.29000000000002 C 262.30999999999995 135.12000000000003 264.86999999999995 131.84000000000003 271.96 128.26000000000002 C 280.01 124.21000000000002 285.32 119.08000000000001 288.79999999999995 112.00000000000001 C 291.15999999999997 107.20000000000002 291.49999999999994 105.30000000000001 291.49999999999994 97.00200000000001 C 291.49999999999994 88.638 291.16999999999996 86.82500000000002 288.71999999999997 81.84100000000001 C 285.27 74.82100000000001 279.72999999999996 69.718 271.11999999999995 65.64000000000001 C 264.79999999999995 62.643000000000015 263.93999999999994 62.50200000000002 251.99999999999994 62.50200000000002 C 240.05999999999995 62.50200000000002 239.19999999999993 62.643000000000015 232.87999999999994 65.64000000000001 C 224.26999999999992 69.71800000000002 218.72999999999993 74.82100000000001 215.27999999999994 81.84100000000001 C 212.82999999999996 86.825 212.49999999999994 88.638 212.49999999999994 97.00200000000001 C 212.49999999999994 105.30000000000001 212.83999999999995 107.20000000000002 215.19999999999993 112.00000000000001 C 218.67999999999992 119.08000000000001 223.98999999999992 124.21000000000001 232.03999999999994 128.26000000000002 C 239.12999999999994 131.84000000000003 241.68999999999994 135.12000000000003 240.63999999999993 139.29000000000002 C 239.62999999999994 143.31000000000003 236.23999999999992 145.86 231.09999999999994 146.46 C 217.22999999999993 148.07000000000002 213.08999999999995 149.13 205.12999999999994 153.07000000000002 C 195.59999999999994 157.79000000000002 184.31999999999994 168.05 179.48999999999995 176.38000000000002 C 172.20999999999995 188.93000000000004 169.50999999999996 204.22000000000003 171.96999999999994 218.85000000000002 C 174.91999999999993 236.32000000000002 187.68999999999994 252.97000000000003 204.29999999999995 260.98 C 214.30999999999995 265.8 216.53999999999996 268.29 215.56999999999996 273.5 C 214.77999999999997 277.7 212.95999999999995 279.01 202.99999999999997 282.55 C 163.37999999999997 296.67 130.31999999999996 330.06 116.11999999999998 370.31 C 110.31999999999998 386.75 108.63999999999997 397.38 108.56999999999998 418 C 108.52999999999997 428.18 108.84999999999998 437.74 109.26999999999998 439.25 L 110.03999999999998 442 L 252 442 L 393.96000000000004 442 L 394.73 439.25 z" stroke-linecap="round" />
</g>
</g>
</g>
<g transform="matrix(1.43 0 0 1.43 270 223.77)"  >
<path style="stroke: rgb(237,206,13); stroke-width: 4; stroke-dasharray: none; stroke-linecap: butt; stroke-dashoffset: 0; stroke-linejoin: miter; stroke-miterlimit: 4; fill: rgb(179,35,35); fill-rule: nonzero; opacity: 1;" vector-effect="non-scaling-stroke"  transform=" translate(-50, -50)" d="M 87.103 50.023 C 87.103 60.261 83.5 69.057 76.24199999999999 76.31400000000001 C 68.985 83.571 60.236 87.176 50 87.176 C 39.760999999999996 87.176 31.015 83.572 23.759 76.31400000000001 C 16.5 69.057 12.897 60.261 12.897 50.023 C 12.897 39.739000000000004 16.5 30.992000000000004 23.759 23.734 C 31.014 16.477000000000004 39.760000000000005 12.824000000000002 50 12.824000000000002 C 60.236000000000004 12.824000000000002 68.985 16.477 76.241 23.734 C 83.5 30.992 87.103 39.739 87.103 50.023 z M 44.903 41.228 L 35.677 25.177000000000003 C 31.352 27.676000000000002 27.938 31.088 25.342 35.413000000000004 C 22.796 39.74 21.546999999999997 44.496 21.546999999999997 49.735 L 39.955999999999996 49.735 C 39.956 45.842 41.588 43.006 44.903 41.228 z M 63.984 74.68 L 54.854 58.57900000000001 C 53.987 59.10600000000001 53.172 59.492000000000004 52.304 59.684000000000005 C 51.49 59.876000000000005 50.625 59.972 49.615 59.972 C 47.883 59.972 46.346000000000004 59.54 44.903000000000006 58.578 L 35.485 74.68 C 39.906 77.13000000000001 44.665 78.38000000000001 49.854 78.38000000000001 C 54.951 78.38 59.66 77.178 63.984 74.68 z M 55.335 50.071 C 55.335 48.534 54.855000000000004 47.236 53.795 46.178 C 52.738 45.122 51.441 44.592 49.904 44.592 C 48.46 44.592 47.166000000000004 45.122 46.059000000000005 46.178 C 44.903000000000006 47.236 44.377 48.534 44.377 50.071 C 44.377 51.608999999999995 44.903000000000006 52.955999999999996 45.914 54.013 C 46.97 55.07 48.318 55.598 49.904 55.598 C 51.395 55.598 52.643 55.022 53.749 53.917 C 54.805 52.859 55.335 51.562 55.335 50.071 z M 78.453 49.735 C 78.453 44.688 77.20100000000001 40.027 74.654 35.652 C 72.158 31.327 68.64699999999999 27.819000000000003 64.08099999999999 25.176000000000002 L 54.950999999999986 41.132000000000005 C 58.16999999999999 43.2 59.755999999999986 46.034000000000006 59.755999999999986 49.73500000000001 L 78.453 49.73500000000001 z" stroke-linecap="round" />
</g>
</svg>