<?xml version="1.0" encoding="UTF-8" standalone="no" ?>
<!DOCTYPE svg PUBLIC "-//W3C//DTD SVG 1.1//EN" "http://www.w3.org/Graphics/SVG/1.1/DTD/svg11.dtd">
<svg xmlns="http://www.w3.org/2000/svg" xmlns:xlink="http://www.w3.org/1999/xlink" version="1.1" width="540" height="540" viewBox="0 0 540 540" xml:space="preserve">
<desc>Created with Fabric.js 5.2.4</desc>
<defs>
</defs>
<rect x="0" y="0" width="100%" height="100%" fill="transparent"></rect>
<g transform="matrix(1 0 0 1 270 270)" id="269052c4-326c-4559-98c1-44b26682010f"  >
<rect style="stroke: none; stroke-width: 1; stroke-dasharray: none; stroke-linecap: butt; stroke-dashoffset: 0; stroke-linejoin: miter; stroke-miterlimit: 4; fill: rgb(255,255,255); fill-rule: nonzero; opacity: 1; visibility: hidden;" vector-effect="non-scaling-stroke"  x="-270" y="-270" rx="0" ry="0" width="540" height="540" />
</g>
<g transform="matrix(0 0 0 0 0 0)" id="8e901bd9-f91b-44a5-a070-406ff39325d3"  >
</g>
<g transform="matrix(1 0 0 1 270 270)"  >
<g style="" vector-effect="non-scaling-stroke"   >
		<g transform="matrix(1 0 0 1 0 0)" id="path2443"  >
<path style="stroke: none; stroke-width: 1; stroke-dasharray: none; stroke-linecap: butt; stroke-dashoffset: 0; stroke-linejoin: miter; stroke-miterlimit: 4; fill: rgb(0,0,0); fill-rule: nonzero; opacity: 1;" vector-effect="non-scaling-stroke"  transform=" translate(-252, -252)" d="M 203.31 470.98 C 165.49 468.6 130.87 460 104.76 446.48 C 97.447 442.70000000000005 95.09200000000001 440.96000000000004 94.357 438.82 C 93.687 436.87 94.13 430.09 95.861 415.82 L 98.315 395.59 L 95.943 369.09 L 93.571 342.59 L 87.551 332.09 C 79.264 317.63 69.352 302.96 57.476 287.59 C 40.546 265.66999999999996 34.873999999999995 256.19 30.247999999999998 242.08999999999997 C 27.854 234.78999999999996 27.448999999999998 231.89 27.382999999999996 221.58999999999997 C 27.318999999999996 211.65999999999997 27.709999999999997 208.29999999999998 29.648999999999994 202.08999999999997 C 36.842999999999996 179.05999999999997 52.382999999999996 162.07999999999998 73.161 154.52999999999997 C 92.7 147.43999999999997 111.07 147.48999999999998 133.98000000000002 154.68999999999997 C 156.24 161.68999999999997 184.10000000000002 178.57999999999998 204.45000000000002 197.41999999999996 L 210.37 202.89999999999995 L 208.16 194.13999999999996 C 203.59 176.01999999999995 202.74 162.15999999999997 205.4 149.29999999999995 C 208.35 135.01999999999995 215.19 122.24999999999996 224.02 114.57999999999996 C 228.19 110.95999999999995 240.96 104.08999999999996 243.53 104.08999999999996 C 244.52 104.08999999999996 244.81 100.12999999999997 244.81 86.58799999999997 L 244.81 69.08799999999997 L 228.31 69.08799999999997 L 211.81 69.08799999999997 L 211.81 61.587999999999965 L 211.81 54.087999999999965 L 228.31 54.087999999999965 L 244.81 54.087999999999965 L 244.81 43.087999999999965 L 244.81 32.087999999999965 L 252.31 32.087999999999965 L 259.81 32.087999999999965 L 259.81 43.087999999999965 L 259.81 54.087999999999965 L 275.81 54.087999999999965 L 291.81 54.087999999999965 L 291.81 61.587999999999965 L 291.81 69.08799999999997 L 275.81 69.08799999999997 L 259.81 69.08799999999997 L 259.81 86.33799999999997 L 259.81 103.58999999999996 L 267.06 106.84999999999997 C 283.37 114.18999999999997 293.94 128.59999999999997 298.22 149.29999999999995 C 300.87 162.15999999999997 300.02000000000004 176.01999999999995 295.45000000000005 194.13999999999996 L 293.24000000000007 202.89999999999995 L 299.1600000000001 197.41999999999996 C 313.93000000000006 183.74999999999997 333.7100000000001 170.31999999999996 351.31000000000006 162.01999999999995 C 375.24000000000007 150.73999999999995 397.82000000000005 146.79999999999995 416.50000000000006 150.65999999999997 C 433.6600000000001 154.20999999999998 444.45000000000005 159.80999999999997 455.81000000000006 171.08999999999997 C 472.19000000000005 187.34999999999997 479.84000000000003 211.99999999999997 475.36000000000007 234.11999999999998 C 472.07000000000005 250.39999999999998 465.32000000000005 262.76 446.1600000000001 287.59 C 434.2700000000001 303 424.3400000000001 317.67999999999995 416.0700000000001 332.09 L 410.04000000000013 342.59 L 407.67000000000013 369.09 L 405.3000000000001 395.59 L 407.7500000000001 415.82 C 409.48000000000013 430.09 409.92000000000013 436.87 409.2500000000001 438.82 C 408.5200000000001 440.96 406.16000000000014 442.7 398.85000000000014 446.48 C 371.90000000000015 460.43 338.73000000000013 468.5 297.8100000000001 471.05 C 278.8700000000001 472.23 222.53000000000011 472.19 203.31000000000012 470.98 z" stroke-linecap="round" />
</g>
		<g transform="matrix(1 0 0 1 -0.19 -57.4)" id="path2397"  >
<path style="stroke: none; stroke-width: 1; stroke-dasharray: none; stroke-linecap: butt; stroke-dashoffset: 0; stroke-linejoin: miter; stroke-miterlimit: 4; fill: rgb(255,255,255); fill-rule: nonzero; opacity: 1;" vector-effect="non-scaling-stroke"  transform=" translate(-251.81, -194.6)" d="M 253.09 266.34 C 253.38 265.38 257.29 254.00999999999996 261.79 241.08999999999997 C 278.74 192.31999999999996 280.34000000000003 186.47999999999996 281.44 169.54999999999995 C 282.55 152.29999999999995 279.24 140.39999999999995 270.58 130.56999999999996 C 265.56 124.85999999999997 258.10999999999996 121.10999999999996 251.80999999999997 121.10999999999996 C 245.49999999999997 121.10999999999996 238.05999999999997 124.85999999999996 233.02999999999997 130.56999999999996 C 224.37999999999997 140.39999999999998 221.05999999999997 152.29999999999995 222.17999999999998 169.54999999999995 C 223.26999999999998 186.47999999999996 224.86999999999998 192.31999999999996 241.82999999999998 241.08999999999997 C 246.32 254.00999999999996 250.23 265.38 250.51999999999998 266.34 C 250.79999999999998 267.29999999999995 251.38 268.09 251.80999999999997 268.09 C 252.22999999999996 268.09 252.80999999999997 267.29999999999995 253.08999999999997 266.34 z" stroke-linecap="round" />
</g>
		<g transform="matrix(1 0 0 1 108.27 -3.43)" id="path2395"  >
<path style="stroke: none; stroke-width: 1; stroke-dasharray: none; stroke-linecap: butt; stroke-dashoffset: 0; stroke-linejoin: miter; stroke-miterlimit: 4; fill: rgb(255,255,255); fill-rule: nonzero; opacity: 1;" vector-effect="non-scaling-stroke"  transform=" translate(-360.27, -248.57)" d="M 401.73 322.02 C 408.20000000000005 310.28999999999996 421.59000000000003 290.54999999999995 433.90000000000003 274.59 C 452.6 250.33999999999997 457.54 240.40999999999997 458.50000000000006 225.14 C 459.56000000000006 208.23999999999998 454.5400000000001 194.6 443.06000000000006 183.16 C 431.11000000000007 171.26 417.20000000000005 166.42 397.81000000000006 167.43 C 379.69000000000005 168.38 363.57000000000005 173.93 342.94000000000005 186.35000000000002 C 309.50000000000006 206.48000000000002 279.31000000000006 241.42000000000002 271.13000000000005 269.48 C 269.15000000000003 276.25 264.7300000000001 296.31 262.47 308.71000000000004 L 261.91 311.84000000000003 L 275.11 312.50000000000006 C 313.51 314.43000000000006 362.81 321.4100000000001 388.31 328.52000000000004 C 396.78000000000003 330.88000000000005 396.86 330.84000000000003 401.73 322.02000000000004 z" stroke-linecap="round" />
</g>
		<g transform="matrix(1 0 0 1 -108.73 -3.58)" id="path2393"  >
<path style="stroke: none; stroke-width: 1; stroke-dasharray: none; stroke-linecap: butt; stroke-dashoffset: 0; stroke-linejoin: miter; stroke-miterlimit: 4; fill: rgb(255,255,255); fill-rule: nonzero; opacity: 1;" vector-effect="non-scaling-stroke"  transform=" translate(-143.27, -248.42)" d="M 125.31 326.22 C 154.57 319.53000000000003 188.39 314.85 220.81 313 C 232.08 312.36 241.41 311.76 241.53 311.66 C 242.04 311.24 234.7 276.98 232.5 269.48 C 224.25 241.35000000000002 194.1 206.47000000000003 160.67000000000002 186.35000000000002 C 140.04000000000002 173.93000000000004 123.93 168.38000000000002 105.81000000000002 167.43 C 86.41500000000002 166.42000000000002 72.49800000000002 171.26000000000002 60.55600000000002 183.16 C 49.06100000000002 194.60999999999999 44.02800000000002 208.3 45.140000000000015 225.09 C 46.16800000000001 240.61 51.326000000000015 250.89000000000001 70.48400000000001 275.6 C 82.168 290.67 95.46700000000001 310.36 101.85000000000001 322.03000000000003 C 107.01 331.46000000000004 104.44000000000001 331.00000000000006 125.31 326.22 z" stroke-linecap="round" />
</g>
		<g transform="matrix(1 0 0 1 -0.19 104.96)" id="path2391"  >
<path style="stroke: none; stroke-width: 1; stroke-dasharray: none; stroke-linecap: butt; stroke-dashoffset: 0; stroke-linejoin: miter; stroke-miterlimit: 4; fill: rgb(255,255,255); fill-rule: nonzero; opacity: 1;" vector-effect="non-scaling-stroke"  transform=" translate(-251.81, -356.96)" d="M 156.67 372.63 C 228.56 356.64 304.62 359.17 375.53 379.9 L 388.47999999999996 383.67999999999995 L 389.7 368.63999999999993 C 390.36 360.35999999999996 391.15 352.19999999999993 391.44 350.50999999999993 L 391.96 347.43999999999994 L 377.63 344.18999999999994 C 295.62 325.5799999999999 207.99 325.5799999999999 125.97999999999999 344.18999999999994 L 111.64999999999999 347.43999999999994 L 112.17999999999999 350.50999999999993 C 112.46 352.19999999999993 113.24999999999999 360.35999999999996 113.91999999999999 368.63999999999993 L 115.12999999999998 383.67999999999995 L 128.07999999999998 379.9 C 135.20999999999998 377.81 148.07 374.53999999999996 156.67 372.63 z" stroke-linecap="round" />
</g>
		<g transform="matrix(1 0 0 1 -0.19 148.5)" id="path2389"  >
<path style="stroke: none; stroke-width: 1; stroke-dasharray: none; stroke-linecap: butt; stroke-dashoffset: 0; stroke-linejoin: miter; stroke-miterlimit: 4; fill: rgb(255,255,255); fill-rule: nonzero; opacity: 1;" vector-effect="non-scaling-stroke"  transform=" translate(-251.81, -400.5)" d="M 153.31 409.08 C 190.04 399.56 213.07 396.65 251.81 396.65 C 273 396.65 284.02 397.10999999999996 294.81 398.42999999999995 C 322.44 401.80999999999995 353.22 408.80999999999995 378.07 417.34999999999997 C 387.98 420.76 390.73 421.39 390.37 420.16999999999996 C 390.11 419.29999999999995 389.6 415.33 389.23 411.34999999999997 C 388.86 407.37999999999994 388.05 403.46 387.43 402.65 C 386.05 400.83 363.77 394.27 345.14 390.2 C 274.94 374.84999999999997 199.35 377.32 130.97 397.2 C 123.45 399.38 116.8 401.84 116.18 402.65 C 115.57000000000001 403.46 114.76 407.38 114.38000000000001 411.34999999999997 C 114.01 415.33 113.50000000000001 419.29999999999995 113.24000000000001 420.16999999999996 C 112.88000000000001 421.39 115.63000000000001 420.75999999999993 125.54 417.34999999999997 C 132.56 414.93999999999994 145.06 411.21999999999997 153.31 409.08 z" stroke-linecap="round" />
</g>
		<g transform="matrix(1 0 0 1 -0.19 182.28)" id="path2387"  >
<path style="stroke: none; stroke-width: 1; stroke-dasharray: none; stroke-linecap: butt; stroke-dashoffset: 0; stroke-linejoin: miter; stroke-miterlimit: 4; fill: rgb(255,255,255); fill-rule: nonzero; opacity: 1;" vector-effect="non-scaling-stroke"  transform=" translate(-251.81, -434.28)" d="M 297.81 453.05 C 317.21 451.84000000000003 337.34000000000003 449.06 351.31 445.67 C 363.77 442.64000000000004 379.24 437.1 378.13 436.07 C 376.94 434.95 356.99 428.67 345.31 425.73 C 312.4 417.47 288.65 414.65000000000003 251.81 414.65000000000003 C 214.96 414.65000000000003 191.21 417.47 158.31 425.73 C 146.62 428.67 126.67 434.95000000000005 125.48 436.07 C 124.38000000000001 437.09999999999997 139.84 442.63 152.31 445.67 C 165.38 448.85 187.05 451.96000000000004 203.31 452.98 C 222.53 454.19 278.87 454.23 297.81 453.05 z" stroke-linecap="round" />
</g>
</g>
</g>
<g transform="matrix(2.67 0 0 2.67 270 334.38)" id="07c33224-5e82-47e6-900c-c7aaad1ab943"  >
<path style="stroke: rgb(0,0,0); stroke-width: 0; stroke-dasharray: none; stroke-linecap: butt; stroke-dashoffset: 0; stroke-linejoin: miter; stroke-miterlimit: 4; fill: rgb(197,54,54); fill-rule: nonzero; opacity: 1;" vector-effect="non-scaling-stroke"  transform=" translate(-50, -50)" d="M 24.442 24.417 C 38.551 10.306000000000001 61.448 10.306000000000001 75.557 24.417 C 89.718 38.576 89.718 61.473 75.557 75.584 C 61.448 89.694 38.551 89.694 24.442 75.584 C 10.281 61.473 10.281 38.576 24.442 24.417 z M 34.835 29.637 L 70.388 65.188 C 77.768 55.196 76.965 41.087 67.977 32.048 C 58.94 23.01 44.779 22.208 34.835 29.637 z M 65.164 70.361 L 29.615 34.86 C 22.232 44.803 23.034 58.963 32.022999999999996 67.951 C 41.063 76.99 55.225 77.793 65.164 70.361 z" stroke-linecap="round" />
</g>
</svg>